<?xml version="1.0" encoding="utf-8" standalone="no"?>
<!DOCTYPE svg PUBLIC "-//W3C//DTD SVG 1.1//EN"
  "http://www.w3.org/Graphics/SVG/1.1/DTD/svg11.dtd">
<svg xmlns:xlink="http://www.w3.org/1999/xlink" width="1048.048958pt" height="1055.145469pt" viewBox="0 0 1048.048958 1055.145469" xmlns="http://www.w3.org/2000/svg" version="1.1">
 <metadata>
  <rdf:RDF xmlns:dc="http://purl.org/dc/elements/1.1/" xmlns:cc="http://creativecommons.org/ns#" xmlns:rdf="http://www.w3.org/1999/02/22-rdf-syntax-ns#">
   <cc:Work>
    <dc:type rdf:resource="http://purl.org/dc/dcmitype/StillImage"/>
    <dc:date>2025-12-13T17:59:48.365119</dc:date>
    <dc:format>image/svg+xml</dc:format>
    <dc:creator>
     <cc:Agent>
      <dc:title>Matplotlib v3.10.7, https://matplotlib.org/</dc:title>
     </cc:Agent>
    </dc:creator>
   </cc:Work>
  </rdf:RDF>
 </metadata>
 <defs>
  <style type="text/css">*{stroke-linejoin: round; stroke-linecap: butt}</style>
 </defs>
 <g id="figure_1">
  <g id="patch_1">
   <path d="M 0 1055.145469 
L 1048.048958 1055.145469 
L 1048.048958 0 
L 0 0 
z
" style="fill: #ffffff"/>
  </g>
  <g id="axes_1">
   <g id="patch_2">
    <path d="M 70.160625 324.575937 
L 373.924496 324.575937 
L 373.924496 26.955938 
L 70.160625 26.955938 
z
" style="fill: #eaeaf2"/>
   </g>
   <g id="matplotlib.axis_1">
    <g id="xtick_1">
     <g id="line2d_1">
      <path d="M 83.968046 324.575937 
L 83.968046 26.955938 
" clip-path="url(#p187ae1e475)" style="fill: none; stroke: #ffffff; stroke-width: 1.5; stroke-linecap: round"/>
     </g>
    </g>
    <g id="xtick_2">
     <g id="line2d_2">
      <path d="M 139.197846 324.575937 
L 139.197846 26.955938 
" clip-path="url(#p187ae1e475)" style="fill: none; stroke: #ffffff; stroke-width: 1.5; stroke-linecap: round"/>
     </g>
    </g>
    <g id="xtick_3">
     <g id="line2d_3">
      <path d="M 194.427647 324.575937 
L 194.427647 26.955938 
" clip-path="url(#p187ae1e475)" style="fill: none; stroke: #ffffff; stroke-width: 1.5; stroke-linecap: round"/>
     </g>
    </g>
    <g id="xtick_4">
     <g id="line2d_4">
      <path d="M 249.657447 324.575937 
L 249.657447 26.955938 
" clip-path="url(#p187ae1e475)" style="fill: none; stroke: #ffffff; stroke-width: 1.5; stroke-linecap: round"/>
     </g>
    </g>
    <g id="xtick_5">
     <g id="line2d_5">
      <path d="M 304.887247 324.575937 
L 304.887247 26.955938 
" clip-path="url(#p187ae1e475)" style="fill: none; stroke: #ffffff; stroke-width: 1.5; stroke-linecap: round"/>
     </g>
    </g>
    <g id="xtick_6">
     <g id="line2d_6">
      <path d="M 360.117048 324.575937 
L 360.117048 26.955938 
" clip-path="url(#p187ae1e475)" style="fill: none; stroke: #ffffff; stroke-width: 1.5; stroke-linecap: round"/>
     </g>
    </g>
   </g>
   <g id="matplotlib.axis_2">
    <g id="ytick_1">
     <g id="line2d_7">
      <path d="M 70.160625 311.083407 
L 373.924496 311.083407 
" clip-path="url(#p187ae1e475)" style="fill: none; stroke: #ffffff; stroke-width: 1.5; stroke-linecap: round"/>
     </g>
     <g id="text_1">
      <!-- $\mathdefault{10^{0}}$ -->
      <g style="fill: #262626" transform="translate(28.620625 317.352118) scale(0.165 -0.165)">
       <defs>
        <path id="DejaVuSans-31" d="M 794 531 
L 1825 531 
L 1825 4091 
L 703 3866 
L 703 4441 
L 1819 4666 
L 2450 4666 
L 2450 531 
L 3481 531 
L 3481 0 
L 794 0 
L 794 531 
z
" transform="scale(0.015625)"/>
        <path id="DejaVuSans-30" d="M 2034 4250 
Q 1547 4250 1301 3770 
Q 1056 3291 1056 2328 
Q 1056 1369 1301 889 
Q 1547 409 2034 409 
Q 2525 409 2770 889 
Q 3016 1369 3016 2328 
Q 3016 3291 2770 3770 
Q 2525 4250 2034 4250 
z
M 2034 4750 
Q 2819 4750 3233 4129 
Q 3647 3509 3647 2328 
Q 3647 1150 3233 529 
Q 2819 -91 2034 -91 
Q 1250 -91 836 529 
Q 422 1150 422 2328 
Q 422 3509 836 4129 
Q 1250 4750 2034 4750 
z
" transform="scale(0.015625)"/>
       </defs>
       <use xlink:href="#DejaVuSans-31" transform="translate(0 0.765625)"/>
       <use xlink:href="#DejaVuSans-30" transform="translate(63.623047 0.765625)"/>
       <use xlink:href="#DejaVuSans-30" transform="translate(128.203125 39.046875) scale(0.7)"/>
      </g>
     </g>
    </g>
    <g id="ytick_2">
     <g id="line2d_8">
      <path d="M 70.160625 197.661776 
L 373.924496 197.661776 
" clip-path="url(#p187ae1e475)" style="fill: none; stroke: #ffffff; stroke-width: 1.5; stroke-linecap: round"/>
     </g>
     <g id="text_2">
      <!-- $\mathdefault{10^{1}}$ -->
      <g style="fill: #262626" transform="translate(28.620625 203.930487) scale(0.165 -0.165)">
       <use xlink:href="#DejaVuSans-31" transform="translate(0 0.684375)"/>
       <use xlink:href="#DejaVuSans-30" transform="translate(63.623047 0.684375)"/>
       <use xlink:href="#DejaVuSans-31" transform="translate(128.203125 38.965625) scale(0.7)"/>
      </g>
     </g>
    </g>
    <g id="ytick_3">
     <g id="line2d_9">
      <path d="M 70.160625 84.240146 
L 373.924496 84.240146 
" clip-path="url(#p187ae1e475)" style="fill: none; stroke: #ffffff; stroke-width: 1.5; stroke-linecap: round"/>
     </g>
     <g id="text_3">
      <!-- $\mathdefault{10^{2}}$ -->
      <g style="fill: #262626" transform="translate(28.620625 90.508857) scale(0.165 -0.165)">
       <defs>
        <path id="DejaVuSans-32" d="M 1228 531 
L 3431 531 
L 3431 0 
L 469 0 
L 469 531 
Q 828 903 1448 1529 
Q 2069 2156 2228 2338 
Q 2531 2678 2651 2914 
Q 2772 3150 2772 3378 
Q 2772 3750 2511 3984 
Q 2250 4219 1831 4219 
Q 1534 4219 1204 4116 
Q 875 4013 500 3803 
L 500 4441 
Q 881 4594 1212 4672 
Q 1544 4750 1819 4750 
Q 2544 4750 2975 4387 
Q 3406 4025 3406 3419 
Q 3406 3131 3298 2873 
Q 3191 2616 2906 2266 
Q 2828 2175 2409 1742 
Q 1991 1309 1228 531 
z
" transform="scale(0.015625)"/>
       </defs>
       <use xlink:href="#DejaVuSans-31" transform="translate(0 0.765625)"/>
       <use xlink:href="#DejaVuSans-30" transform="translate(63.623047 0.765625)"/>
       <use xlink:href="#DejaVuSans-32" transform="translate(128.203125 39.046875) scale(0.7)"/>
      </g>
     </g>
    </g>
    <g id="ytick_4"/>
    <g id="ytick_5"/>
    <g id="ytick_6"/>
    <g id="ytick_7"/>
    <g id="ytick_8"/>
    <g id="ytick_9"/>
    <g id="ytick_10"/>
    <g id="ytick_11"/>
    <g id="ytick_12"/>
    <g id="ytick_13"/>
    <g id="ytick_14"/>
    <g id="ytick_15"/>
    <g id="ytick_16"/>
    <g id="ytick_17"/>
    <g id="ytick_18"/>
    <g id="ytick_19"/>
    <g id="ytick_20"/>
    <g id="ytick_21"/>
    <g id="ytick_22"/>
    <g id="ytick_23"/>
    <g id="text_4">
     <!-- perplexity -->
     <g style="fill: #262626" transform="translate(20.877188 220.99375) rotate(-90) scale(0.18 -0.18)">
      <defs>
       <path id="DejaVuSans-70" d="M 1159 525 
L 1159 -1331 
L 581 -1331 
L 581 3500 
L 1159 3500 
L 1159 2969 
Q 1341 3281 1617 3432 
Q 1894 3584 2278 3584 
Q 2916 3584 3314 3078 
Q 3713 2572 3713 1747 
Q 3713 922 3314 415 
Q 2916 -91 2278 -91 
Q 1894 -91 1617 61 
Q 1341 213 1159 525 
z
M 3116 1747 
Q 3116 2381 2855 2742 
Q 2594 3103 2138 3103 
Q 1681 3103 1420 2742 
Q 1159 2381 1159 1747 
Q 1159 1113 1420 752 
Q 1681 391 2138 391 
Q 2594 391 2855 752 
Q 3116 1113 3116 1747 
z
" transform="scale(0.015625)"/>
       <path id="DejaVuSans-65" d="M 3597 1894 
L 3597 1613 
L 953 1613 
Q 991 1019 1311 708 
Q 1631 397 2203 397 
Q 2534 397 2845 478 
Q 3156 559 3463 722 
L 3463 178 
Q 3153 47 2828 -22 
Q 2503 -91 2169 -91 
Q 1331 -91 842 396 
Q 353 884 353 1716 
Q 353 2575 817 3079 
Q 1281 3584 2069 3584 
Q 2775 3584 3186 3129 
Q 3597 2675 3597 1894 
z
M 3022 2063 
Q 3016 2534 2758 2815 
Q 2500 3097 2075 3097 
Q 1594 3097 1305 2825 
Q 1016 2553 972 2059 
L 3022 2063 
z
" transform="scale(0.015625)"/>
       <path id="DejaVuSans-72" d="M 2631 2963 
Q 2534 3019 2420 3045 
Q 2306 3072 2169 3072 
Q 1681 3072 1420 2755 
Q 1159 2438 1159 1844 
L 1159 0 
L 581 0 
L 581 3500 
L 1159 3500 
L 1159 2956 
Q 1341 3275 1631 3429 
Q 1922 3584 2338 3584 
Q 2397 3584 2469 3576 
Q 2541 3569 2628 3553 
L 2631 2963 
z
" transform="scale(0.015625)"/>
       <path id="DejaVuSans-6c" d="M 603 4863 
L 1178 4863 
L 1178 0 
L 603 0 
L 603 4863 
z
" transform="scale(0.015625)"/>
       <path id="DejaVuSans-78" d="M 3513 3500 
L 2247 1797 
L 3578 0 
L 2900 0 
L 1881 1375 
L 863 0 
L 184 0 
L 1544 1831 
L 300 3500 
L 978 3500 
L 1906 2253 
L 2834 3500 
L 3513 3500 
z
" transform="scale(0.015625)"/>
       <path id="DejaVuSans-69" d="M 603 3500 
L 1178 3500 
L 1178 0 
L 603 0 
L 603 3500 
z
M 603 4863 
L 1178 4863 
L 1178 4134 
L 603 4134 
L 603 4863 
z
" transform="scale(0.015625)"/>
       <path id="DejaVuSans-74" d="M 1172 4494 
L 1172 3500 
L 2356 3500 
L 2356 3053 
L 1172 3053 
L 1172 1153 
Q 1172 725 1289 603 
Q 1406 481 1766 481 
L 2356 481 
L 2356 0 
L 1766 0 
Q 1100 0 847 248 
Q 594 497 594 1153 
L 594 3053 
L 172 3053 
L 172 3500 
L 594 3500 
L 594 4494 
L 1172 4494 
z
" transform="scale(0.015625)"/>
       <path id="DejaVuSans-79" d="M 2059 -325 
Q 1816 -950 1584 -1140 
Q 1353 -1331 966 -1331 
L 506 -1331 
L 506 -850 
L 844 -850 
Q 1081 -850 1212 -737 
Q 1344 -625 1503 -206 
L 1606 56 
L 191 3500 
L 800 3500 
L 1894 763 
L 2988 3500 
L 3597 3500 
L 2059 -325 
z
" transform="scale(0.015625)"/>
      </defs>
      <use xlink:href="#DejaVuSans-70"/>
      <use xlink:href="#DejaVuSans-65" transform="translate(63.476562 0)"/>
      <use xlink:href="#DejaVuSans-72" transform="translate(125 0)"/>
      <use xlink:href="#DejaVuSans-70" transform="translate(166.113281 0)"/>
      <use xlink:href="#DejaVuSans-6c" transform="translate(229.589844 0)"/>
      <use xlink:href="#DejaVuSans-65" transform="translate(257.373047 0)"/>
      <use xlink:href="#DejaVuSans-78" transform="translate(317.146484 0)"/>
      <use xlink:href="#DejaVuSans-69" transform="translate(376.326172 0)"/>
      <use xlink:href="#DejaVuSans-74" transform="translate(404.109375 0)"/>
      <use xlink:href="#DejaVuSans-79" transform="translate(443.318359 0)"/>
     </g>
    </g>
   </g>
   <g id="FillBetweenPolyCollection_1">
    <defs>
     <path id="m0cda9f955a" d="M 83.968074 -903.750066 
L 83.968074 -900.443888 
L 98.50221 -852.028068 
L 113.036374 -862.141983 
L 127.570537 -863.090326 
L 142.104674 -863.416508 
L 156.638837 -863.780048 
L 171.173001 -864.055862 
L 185.707165 -864.537235 
L 200.241301 -864.924745 
L 214.775465 -864.974721 
L 229.309629 -865.148695 
L 243.843793 -865.334937 
L 258.377929 -865.533139 
L 272.912092 -865.525323 
L 287.446256 -865.521559 
L 301.98042 -865.528691 
L 316.514556 -865.529491 
L 331.04872 -865.53492 
L 345.582884 -865.538186 
L 360.117048 -865.5379 
L 360.117048 -866.779009 
L 360.117048 -866.779009 
L 345.582884 -866.777996 
L 331.04872 -866.772554 
L 316.514556 -866.767424 
L 301.98042 -866.760786 
L 287.446256 -866.765253 
L 272.912092 -866.755871 
L 258.377929 -866.582313 
L 243.843793 -866.416284 
L 229.309629 -866.272542 
L 214.775465 -866.486339 
L 200.241301 -865.967706 
L 185.707165 -865.69689 
L 171.173001 -865.626137 
L 156.638837 -864.957561 
L 142.104674 -865.28056 
L 127.570537 -864.193391 
L 113.036374 -863.923662 
L 98.50221 -858.256169 
L 83.968074 -903.750066 
z
" style="stroke: #4c72b0; stroke-opacity: 0.2; stroke-width: 1.5"/>
    </defs>
    <g clip-path="url(#p187ae1e475)">
     <use xlink:href="#m0cda9f955a" x="0" y="1055.145469" style="fill: #4c72b0; fill-opacity: 0.2; stroke: #4c72b0; stroke-opacity: 0.2; stroke-width: 1.5"/>
    </g>
   </g>
   <g id="line2d_10">
    <path d="M 83.968074 153.020759 
L 98.50221 200.11395 
L 113.036374 192.104591 
L 127.570537 191.500523 
L 142.104674 190.901699 
L 156.638837 190.770795 
L 171.173001 190.298212 
L 185.707165 190.024994 
L 200.241301 189.696483 
L 214.775465 189.406716 
L 229.309629 189.431645 
L 243.843793 189.266891 
L 258.377929 189.084949 
L 272.912092 189.001029 
L 287.446256 188.998138 
L 301.98042 188.996878 
L 316.514556 188.993122 
L 331.04872 188.987845 
L 345.582884 188.983477 
L 360.117048 188.983105 
" clip-path="url(#p187ae1e475)" style="fill: none; stroke: #4c72b0; stroke-width: 2.25; stroke-linecap: round"/>
   </g>
   <g id="patch_3">
    <path d="M 70.160625 324.575937 
L 70.160625 26.955938 
" style="fill: none; stroke: #ffffff; stroke-width: 1.875; stroke-linejoin: miter; stroke-linecap: square"/>
   </g>
   <g id="patch_4">
    <path d="M 70.160625 324.575937 
L 373.924496 324.575937 
" style="fill: none; stroke: #ffffff; stroke-width: 1.875; stroke-linejoin: miter; stroke-linecap: square"/>
   </g>
   <g id="text_5">
    <!-- classes = 10 | nums = 1000 -->
    <g style="fill: #262626" transform="translate(94.978029 20.955938) scale(0.18 -0.18)">
     <defs>
      <path id="DejaVuSans-63" d="M 3122 3366 
L 3122 2828 
Q 2878 2963 2633 3030 
Q 2388 3097 2138 3097 
Q 1578 3097 1268 2742 
Q 959 2388 959 1747 
Q 959 1106 1268 751 
Q 1578 397 2138 397 
Q 2388 397 2633 464 
Q 2878 531 3122 666 
L 3122 134 
Q 2881 22 2623 -34 
Q 2366 -91 2075 -91 
Q 1284 -91 818 406 
Q 353 903 353 1747 
Q 353 2603 823 3093 
Q 1294 3584 2113 3584 
Q 2378 3584 2631 3529 
Q 2884 3475 3122 3366 
z
" transform="scale(0.015625)"/>
      <path id="DejaVuSans-61" d="M 2194 1759 
Q 1497 1759 1228 1600 
Q 959 1441 959 1056 
Q 959 750 1161 570 
Q 1363 391 1709 391 
Q 2188 391 2477 730 
Q 2766 1069 2766 1631 
L 2766 1759 
L 2194 1759 
z
M 3341 1997 
L 3341 0 
L 2766 0 
L 2766 531 
Q 2569 213 2275 61 
Q 1981 -91 1556 -91 
Q 1019 -91 701 211 
Q 384 513 384 1019 
Q 384 1609 779 1909 
Q 1175 2209 1959 2209 
L 2766 2209 
L 2766 2266 
Q 2766 2663 2505 2880 
Q 2244 3097 1772 3097 
Q 1472 3097 1187 3025 
Q 903 2953 641 2809 
L 641 3341 
Q 956 3463 1253 3523 
Q 1550 3584 1831 3584 
Q 2591 3584 2966 3190 
Q 3341 2797 3341 1997 
z
" transform="scale(0.015625)"/>
      <path id="DejaVuSans-73" d="M 2834 3397 
L 2834 2853 
Q 2591 2978 2328 3040 
Q 2066 3103 1784 3103 
Q 1356 3103 1142 2972 
Q 928 2841 928 2578 
Q 928 2378 1081 2264 
Q 1234 2150 1697 2047 
L 1894 2003 
Q 2506 1872 2764 1633 
Q 3022 1394 3022 966 
Q 3022 478 2636 193 
Q 2250 -91 1575 -91 
Q 1294 -91 989 -36 
Q 684 19 347 128 
L 347 722 
Q 666 556 975 473 
Q 1284 391 1588 391 
Q 1994 391 2212 530 
Q 2431 669 2431 922 
Q 2431 1156 2273 1281 
Q 2116 1406 1581 1522 
L 1381 1569 
Q 847 1681 609 1914 
Q 372 2147 372 2553 
Q 372 3047 722 3315 
Q 1072 3584 1716 3584 
Q 2034 3584 2315 3537 
Q 2597 3491 2834 3397 
z
" transform="scale(0.015625)"/>
      <path id="DejaVuSans-20" transform="scale(0.015625)"/>
      <path id="DejaVuSans-3d" d="M 678 2906 
L 4684 2906 
L 4684 2381 
L 678 2381 
L 678 2906 
z
M 678 1631 
L 4684 1631 
L 4684 1100 
L 678 1100 
L 678 1631 
z
" transform="scale(0.015625)"/>
      <path id="DejaVuSans-7c" d="M 1344 4891 
L 1344 -1509 
L 813 -1509 
L 813 4891 
L 1344 4891 
z
" transform="scale(0.015625)"/>
      <path id="DejaVuSans-6e" d="M 3513 2113 
L 3513 0 
L 2938 0 
L 2938 2094 
Q 2938 2591 2744 2837 
Q 2550 3084 2163 3084 
Q 1697 3084 1428 2787 
Q 1159 2491 1159 1978 
L 1159 0 
L 581 0 
L 581 3500 
L 1159 3500 
L 1159 2956 
Q 1366 3272 1645 3428 
Q 1925 3584 2291 3584 
Q 2894 3584 3203 3211 
Q 3513 2838 3513 2113 
z
" transform="scale(0.015625)"/>
      <path id="DejaVuSans-75" d="M 544 1381 
L 544 3500 
L 1119 3500 
L 1119 1403 
Q 1119 906 1312 657 
Q 1506 409 1894 409 
Q 2359 409 2629 706 
Q 2900 1003 2900 1516 
L 2900 3500 
L 3475 3500 
L 3475 0 
L 2900 0 
L 2900 538 
Q 2691 219 2414 64 
Q 2138 -91 1772 -91 
Q 1169 -91 856 284 
Q 544 659 544 1381 
z
M 1991 3584 
L 1991 3584 
z
" transform="scale(0.015625)"/>
      <path id="DejaVuSans-6d" d="M 3328 2828 
Q 3544 3216 3844 3400 
Q 4144 3584 4550 3584 
Q 5097 3584 5394 3201 
Q 5691 2819 5691 2113 
L 5691 0 
L 5113 0 
L 5113 2094 
Q 5113 2597 4934 2840 
Q 4756 3084 4391 3084 
Q 3944 3084 3684 2787 
Q 3425 2491 3425 1978 
L 3425 0 
L 2847 0 
L 2847 2094 
Q 2847 2600 2669 2842 
Q 2491 3084 2119 3084 
Q 1678 3084 1418 2786 
Q 1159 2488 1159 1978 
L 1159 0 
L 581 0 
L 581 3500 
L 1159 3500 
L 1159 2956 
Q 1356 3278 1631 3431 
Q 1906 3584 2284 3584 
Q 2666 3584 2933 3390 
Q 3200 3197 3328 2828 
z
" transform="scale(0.015625)"/>
     </defs>
     <use xlink:href="#DejaVuSans-63"/>
     <use xlink:href="#DejaVuSans-6c" transform="translate(54.980469 0)"/>
     <use xlink:href="#DejaVuSans-61" transform="translate(82.763672 0)"/>
     <use xlink:href="#DejaVuSans-73" transform="translate(144.042969 0)"/>
     <use xlink:href="#DejaVuSans-73" transform="translate(196.142578 0)"/>
     <use xlink:href="#DejaVuSans-65" transform="translate(248.242188 0)"/>
     <use xlink:href="#DejaVuSans-73" transform="translate(309.765625 0)"/>
     <use xlink:href="#DejaVuSans-20" transform="translate(361.865234 0)"/>
     <use xlink:href="#DejaVuSans-3d" transform="translate(393.652344 0)"/>
     <use xlink:href="#DejaVuSans-20" transform="translate(477.441406 0)"/>
     <use xlink:href="#DejaVuSans-31" transform="translate(509.228516 0)"/>
     <use xlink:href="#DejaVuSans-30" transform="translate(572.851562 0)"/>
     <use xlink:href="#DejaVuSans-20" transform="translate(636.474609 0)"/>
     <use xlink:href="#DejaVuSans-7c" transform="translate(668.261719 0)"/>
     <use xlink:href="#DejaVuSans-20" transform="translate(701.953125 0)"/>
     <use xlink:href="#DejaVuSans-6e" transform="translate(733.740234 0)"/>
     <use xlink:href="#DejaVuSans-75" transform="translate(797.119141 0)"/>
     <use xlink:href="#DejaVuSans-6d" transform="translate(860.498047 0)"/>
     <use xlink:href="#DejaVuSans-73" transform="translate(957.910156 0)"/>
     <use xlink:href="#DejaVuSans-20" transform="translate(1010.009766 0)"/>
     <use xlink:href="#DejaVuSans-3d" transform="translate(1041.796875 0)"/>
     <use xlink:href="#DejaVuSans-20" transform="translate(1125.585938 0)"/>
     <use xlink:href="#DejaVuSans-31" transform="translate(1157.373047 0)"/>
     <use xlink:href="#DejaVuSans-30" transform="translate(1220.996094 0)"/>
     <use xlink:href="#DejaVuSans-30" transform="translate(1284.619141 0)"/>
     <use xlink:href="#DejaVuSans-30" transform="translate(1348.242188 0)"/>
    </g>
   </g>
  </g>
  <g id="axes_2">
   <g id="patch_5">
    <path d="M 403.622856 324.575937 
L 707.386727 324.575937 
L 707.386727 26.955938 
L 403.622856 26.955938 
z
" style="fill: #eaeaf2"/>
   </g>
   <g id="matplotlib.axis_3">
    <g id="xtick_7">
     <g id="line2d_11">
      <path d="M 417.430277 324.575937 
L 417.430277 26.955938 
" clip-path="url(#pe31953d83c)" style="fill: none; stroke: #ffffff; stroke-width: 1.5; stroke-linecap: round"/>
     </g>
    </g>
    <g id="xtick_8">
     <g id="line2d_12">
      <path d="M 472.660077 324.575937 
L 472.660077 26.955938 
" clip-path="url(#pe31953d83c)" style="fill: none; stroke: #ffffff; stroke-width: 1.5; stroke-linecap: round"/>
     </g>
    </g>
    <g id="xtick_9">
     <g id="line2d_13">
      <path d="M 527.889878 324.575937 
L 527.889878 26.955938 
" clip-path="url(#pe31953d83c)" style="fill: none; stroke: #ffffff; stroke-width: 1.5; stroke-linecap: round"/>
     </g>
    </g>
    <g id="xtick_10">
     <g id="line2d_14">
      <path d="M 583.119678 324.575937 
L 583.119678 26.955938 
" clip-path="url(#pe31953d83c)" style="fill: none; stroke: #ffffff; stroke-width: 1.5; stroke-linecap: round"/>
     </g>
    </g>
    <g id="xtick_11">
     <g id="line2d_15">
      <path d="M 638.349478 324.575937 
L 638.349478 26.955938 
" clip-path="url(#pe31953d83c)" style="fill: none; stroke: #ffffff; stroke-width: 1.5; stroke-linecap: round"/>
     </g>
    </g>
    <g id="xtick_12">
     <g id="line2d_16">
      <path d="M 693.579279 324.575937 
L 693.579279 26.955938 
" clip-path="url(#pe31953d83c)" style="fill: none; stroke: #ffffff; stroke-width: 1.5; stroke-linecap: round"/>
     </g>
    </g>
   </g>
   <g id="matplotlib.axis_4">
    <g id="ytick_24">
     <g id="line2d_17">
      <path d="M 403.622856 311.083407 
L 707.386727 311.083407 
" clip-path="url(#pe31953d83c)" style="fill: none; stroke: #ffffff; stroke-width: 1.5; stroke-linecap: round"/>
     </g>
    </g>
    <g id="ytick_25">
     <g id="line2d_18">
      <path d="M 403.622856 197.661776 
L 707.386727 197.661776 
" clip-path="url(#pe31953d83c)" style="fill: none; stroke: #ffffff; stroke-width: 1.5; stroke-linecap: round"/>
     </g>
    </g>
    <g id="ytick_26">
     <g id="line2d_19">
      <path d="M 403.622856 84.240146 
L 707.386727 84.240146 
" clip-path="url(#pe31953d83c)" style="fill: none; stroke: #ffffff; stroke-width: 1.5; stroke-linecap: round"/>
     </g>
    </g>
    <g id="ytick_27"/>
    <g id="ytick_28"/>
    <g id="ytick_29"/>
    <g id="ytick_30"/>
    <g id="ytick_31"/>
    <g id="ytick_32"/>
    <g id="ytick_33"/>
    <g id="ytick_34"/>
    <g id="ytick_35"/>
    <g id="ytick_36"/>
    <g id="ytick_37"/>
    <g id="ytick_38"/>
    <g id="ytick_39"/>
    <g id="ytick_40"/>
    <g id="ytick_41"/>
    <g id="ytick_42"/>
    <g id="ytick_43"/>
    <g id="ytick_44"/>
    <g id="ytick_45"/>
    <g id="ytick_46"/>
   </g>
   <g id="FillBetweenPolyCollection_2">
    <defs>
     <path id="m05cc41ef83" d="M 417.430305 -903.750066 
L 417.430305 -900.283844 
L 431.964441 -771.419506 
L 446.498605 -770.393352 
L 461.032768 -771.581354 
L 475.566905 -773.034315 
L 490.101068 -770.889498 
L 504.635232 -773.908526 
L 519.169396 -773.820341 
L 533.703532 -774.41801 
L 548.237696 -774.774866 
L 562.77186 -774.787224 
L 577.306024 -775.089149 
L 591.84016 -775.133668 
L 606.374324 -774.831306 
L 620.908487 -775.152641 
L 635.442651 -775.104832 
L 649.976787 -774.891405 
L 664.510951 -775.034991 
L 679.045115 -775.017672 
L 693.579279 -775.045682 
L 693.579279 -812.515372 
L 693.579279 -812.515372 
L 679.045115 -812.50332 
L 664.510951 -812.477296 
L 649.976787 -812.512107 
L 635.442651 -812.444808 
L 620.908487 -812.593466 
L 606.374324 -812.041051 
L 591.84016 -812.918369 
L 577.306024 -811.920003 
L 562.77186 -811.621582 
L 548.237696 -810.906128 
L 533.703532 -810.662333 
L 519.169396 -809.502277 
L 504.635232 -809.730805 
L 490.101068 -809.573717 
L 475.566905 -810.076302 
L 461.032768 -807.748193 
L 446.498605 -808.515562 
L 431.964441 -774.585734 
L 417.430305 -903.750066 
z
" style="stroke: #4c72b0; stroke-opacity: 0.2; stroke-width: 1.5"/>
    </defs>
    <g clip-path="url(#pe31953d83c)">
     <use xlink:href="#m05cc41ef83" x="0" y="1055.145469" style="fill: #4c72b0; fill-opacity: 0.2; stroke: #4c72b0; stroke-opacity: 0.2; stroke-width: 1.5"/>
    </g>
   </g>
   <g id="line2d_20">
    <path d="M 417.430305 153.020759 
L 431.964441 282.206782 
L 446.498605 257.712584 
L 461.032768 257.706301 
L 475.566905 256.267487 
L 490.101068 256.541271 
L 504.635232 256.267919 
L 519.169396 256.389877 
L 533.703532 255.593027 
L 548.237696 255.311497 
L 562.77186 254.694798 
L 577.306024 254.263356 
L 591.84016 253.521329 
L 606.374324 254.223011 
L 620.908487 253.682373 
L 635.442651 253.671638 
L 649.976787 253.780418 
L 664.510951 253.769213 
L 679.045115 253.744831 
L 693.579279 253.731152 
" clip-path="url(#pe31953d83c)" style="fill: none; stroke: #4c72b0; stroke-width: 2.25; stroke-linecap: round"/>
   </g>
   <g id="patch_6">
    <path d="M 403.622856 324.575937 
L 403.622856 26.955938 
" style="fill: none; stroke: #ffffff; stroke-width: 1.875; stroke-linejoin: miter; stroke-linecap: square"/>
   </g>
   <g id="patch_7">
    <path d="M 403.622856 324.575937 
L 707.386727 324.575937 
" style="fill: none; stroke: #ffffff; stroke-width: 1.875; stroke-linejoin: miter; stroke-linecap: square"/>
   </g>
   <g id="text_6">
    <!-- classes = 10 | nums = 10000 -->
    <g style="fill: #262626" transform="translate(422.71401 20.955938) scale(0.18 -0.18)">
     <use xlink:href="#DejaVuSans-63"/>
     <use xlink:href="#DejaVuSans-6c" transform="translate(54.980469 0)"/>
     <use xlink:href="#DejaVuSans-61" transform="translate(82.763672 0)"/>
     <use xlink:href="#DejaVuSans-73" transform="translate(144.042969 0)"/>
     <use xlink:href="#DejaVuSans-73" transform="translate(196.142578 0)"/>
     <use xlink:href="#DejaVuSans-65" transform="translate(248.242188 0)"/>
     <use xlink:href="#DejaVuSans-73" transform="translate(309.765625 0)"/>
     <use xlink:href="#DejaVuSans-20" transform="translate(361.865234 0)"/>
     <use xlink:href="#DejaVuSans-3d" transform="translate(393.652344 0)"/>
     <use xlink:href="#DejaVuSans-20" transform="translate(477.441406 0)"/>
     <use xlink:href="#DejaVuSans-31" transform="translate(509.228516 0)"/>
     <use xlink:href="#DejaVuSans-30" transform="translate(572.851562 0)"/>
     <use xlink:href="#DejaVuSans-20" transform="translate(636.474609 0)"/>
     <use xlink:href="#DejaVuSans-7c" transform="translate(668.261719 0)"/>
     <use xlink:href="#DejaVuSans-20" transform="translate(701.953125 0)"/>
     <use xlink:href="#DejaVuSans-6e" transform="translate(733.740234 0)"/>
     <use xlink:href="#DejaVuSans-75" transform="translate(797.119141 0)"/>
     <use xlink:href="#DejaVuSans-6d" transform="translate(860.498047 0)"/>
     <use xlink:href="#DejaVuSans-73" transform="translate(957.910156 0)"/>
     <use xlink:href="#DejaVuSans-20" transform="translate(1010.009766 0)"/>
     <use xlink:href="#DejaVuSans-3d" transform="translate(1041.796875 0)"/>
     <use xlink:href="#DejaVuSans-20" transform="translate(1125.585938 0)"/>
     <use xlink:href="#DejaVuSans-31" transform="translate(1157.373047 0)"/>
     <use xlink:href="#DejaVuSans-30" transform="translate(1220.996094 0)"/>
     <use xlink:href="#DejaVuSans-30" transform="translate(1284.619141 0)"/>
     <use xlink:href="#DejaVuSans-30" transform="translate(1348.242188 0)"/>
     <use xlink:href="#DejaVuSans-30" transform="translate(1411.865234 0)"/>
    </g>
   </g>
  </g>
  <g id="axes_3">
   <g id="patch_8">
    <path d="M 737.085087 324.575937 
L 1040.848958 324.575937 
L 1040.848958 26.955938 
L 737.085087 26.955938 
z
" style="fill: #eaeaf2"/>
   </g>
   <g id="matplotlib.axis_5">
    <g id="xtick_13">
     <g id="line2d_21">
      <path d="M 750.892508 324.575937 
L 750.892508 26.955938 
" clip-path="url(#p9d2acd5fcb)" style="fill: none; stroke: #ffffff; stroke-width: 1.5; stroke-linecap: round"/>
     </g>
    </g>
    <g id="xtick_14">
     <g id="line2d_22">
      <path d="M 806.122308 324.575937 
L 806.122308 26.955938 
" clip-path="url(#p9d2acd5fcb)" style="fill: none; stroke: #ffffff; stroke-width: 1.5; stroke-linecap: round"/>
     </g>
    </g>
    <g id="xtick_15">
     <g id="line2d_23">
      <path d="M 861.352109 324.575937 
L 861.352109 26.955938 
" clip-path="url(#p9d2acd5fcb)" style="fill: none; stroke: #ffffff; stroke-width: 1.5; stroke-linecap: round"/>
     </g>
    </g>
    <g id="xtick_16">
     <g id="line2d_24">
      <path d="M 916.581909 324.575937 
L 916.581909 26.955938 
" clip-path="url(#p9d2acd5fcb)" style="fill: none; stroke: #ffffff; stroke-width: 1.5; stroke-linecap: round"/>
     </g>
    </g>
    <g id="xtick_17">
     <g id="line2d_25">
      <path d="M 971.811709 324.575937 
L 971.811709 26.955938 
" clip-path="url(#p9d2acd5fcb)" style="fill: none; stroke: #ffffff; stroke-width: 1.5; stroke-linecap: round"/>
     </g>
    </g>
    <g id="xtick_18">
     <g id="line2d_26">
      <path d="M 1027.04151 324.575937 
L 1027.04151 26.955938 
" clip-path="url(#p9d2acd5fcb)" style="fill: none; stroke: #ffffff; stroke-width: 1.5; stroke-linecap: round"/>
     </g>
    </g>
   </g>
   <g id="matplotlib.axis_6">
    <g id="ytick_47">
     <g id="line2d_27">
      <path d="M 737.085087 311.083407 
L 1040.848958 311.083407 
" clip-path="url(#p9d2acd5fcb)" style="fill: none; stroke: #ffffff; stroke-width: 1.5; stroke-linecap: round"/>
     </g>
    </g>
    <g id="ytick_48">
     <g id="line2d_28">
      <path d="M 737.085087 197.661776 
L 1040.848958 197.661776 
" clip-path="url(#p9d2acd5fcb)" style="fill: none; stroke: #ffffff; stroke-width: 1.5; stroke-linecap: round"/>
     </g>
    </g>
    <g id="ytick_49">
     <g id="line2d_29">
      <path d="M 737.085087 84.240146 
L 1040.848958 84.240146 
" clip-path="url(#p9d2acd5fcb)" style="fill: none; stroke: #ffffff; stroke-width: 1.5; stroke-linecap: round"/>
     </g>
    </g>
    <g id="ytick_50"/>
    <g id="ytick_51"/>
    <g id="ytick_52"/>
    <g id="ytick_53"/>
    <g id="ytick_54"/>
    <g id="ytick_55"/>
    <g id="ytick_56"/>
    <g id="ytick_57"/>
    <g id="ytick_58"/>
    <g id="ytick_59"/>
    <g id="ytick_60"/>
    <g id="ytick_61"/>
    <g id="ytick_62"/>
    <g id="ytick_63"/>
    <g id="ytick_64"/>
    <g id="ytick_65"/>
    <g id="ytick_66"/>
    <g id="ytick_67"/>
    <g id="ytick_68"/>
    <g id="ytick_69"/>
   </g>
   <g id="FillBetweenPolyCollection_3">
    <defs>
     <path id="m8baf5e352f" d="M 750.892536 -903.750066 
L 750.892536 -900.283844 
L 765.426672 -770.04427 
L 779.960836 -746.071632 
L 794.494999 -744.964169 
L 809.029136 -744.740323 
L 823.563299 -744.485401 
L 838.097463 -744.402484 
L 852.631627 -744.33524 
L 867.165763 -744.314243 
L 881.699927 -744.199908 
L 896.234091 -744.164577 
L 910.768255 -744.184416 
L 925.302391 -744.136543 
L 939.836555 -744.164095 
L 954.370718 -744.133813 
L 968.904882 -744.130515 
L 983.439018 -744.124173 
L 997.973182 -744.097713 
L 1012.507346 -744.106643 
L 1027.04151 -744.099953 
L 1027.04151 -744.208999 
L 1027.04151 -744.208999 
L 1012.507346 -744.219648 
L 997.973182 -744.201108 
L 983.439018 -744.20939 
L 968.904882 -744.208979 
L 954.370718 -744.182079 
L 939.836555 -744.268523 
L 925.302391 -744.244062 
L 910.768255 -744.241835 
L 896.234091 -744.299346 
L 881.699927 -744.280237 
L 867.165763 -744.443449 
L 852.631627 -744.449868 
L 838.097463 -744.655137 
L 823.563299 -744.697823 
L 809.029136 -744.965879 
L 794.494999 -745.933032 
L 779.960836 -747.979215 
L 765.426672 -773.323969 
L 750.892536 -903.750066 
z
" style="stroke: #4c72b0; stroke-opacity: 0.2; stroke-width: 1.5"/>
    </defs>
    <g clip-path="url(#p9d2acd5fcb)">
     <use xlink:href="#m8baf5e352f" x="0" y="1055.145469" style="fill: #4c72b0; fill-opacity: 0.2; stroke: #4c72b0; stroke-opacity: 0.2; stroke-width: 1.5"/>
    </g>
   </g>
   <g id="line2d_30">
    <path d="M 750.892536 153.020759 
L 765.426672 283.434058 
L 779.960836 308.237682 
L 794.494999 309.771198 
L 809.029136 310.292239 
L 823.563299 310.531324 
L 838.097463 310.616496 
L 852.631627 310.763426 
L 867.165763 310.766776 
L 881.699927 310.90452 
L 896.234091 310.917792 
L 910.768255 310.932335 
L 925.302391 310.955137 
L 939.836555 310.93302 
L 954.370718 310.990528 
L 968.904882 310.973607 
L 983.439018 310.981285 
L 997.973182 310.993066 
L 1012.507346 310.982111 
L 1027.04151 310.986535 
" clip-path="url(#p9d2acd5fcb)" style="fill: none; stroke: #4c72b0; stroke-width: 2.25; stroke-linecap: round"/>
   </g>
   <g id="patch_9">
    <path d="M 737.085087 324.575937 
L 737.085087 26.955938 
" style="fill: none; stroke: #ffffff; stroke-width: 1.875; stroke-linejoin: miter; stroke-linecap: square"/>
   </g>
   <g id="patch_10">
    <path d="M 737.085087 324.575937 
L 1040.848958 324.575937 
" style="fill: none; stroke: #ffffff; stroke-width: 1.875; stroke-linejoin: miter; stroke-linecap: square"/>
   </g>
   <g id="text_7">
    <!-- classes = 10 | nums = 100000 -->
    <g style="fill: #262626" transform="translate(750.449991 20.955938) scale(0.18 -0.18)">
     <use xlink:href="#DejaVuSans-63"/>
     <use xlink:href="#DejaVuSans-6c" transform="translate(54.980469 0)"/>
     <use xlink:href="#DejaVuSans-61" transform="translate(82.763672 0)"/>
     <use xlink:href="#DejaVuSans-73" transform="translate(144.042969 0)"/>
     <use xlink:href="#DejaVuSans-73" transform="translate(196.142578 0)"/>
     <use xlink:href="#DejaVuSans-65" transform="translate(248.242188 0)"/>
     <use xlink:href="#DejaVuSans-73" transform="translate(309.765625 0)"/>
     <use xlink:href="#DejaVuSans-20" transform="translate(361.865234 0)"/>
     <use xlink:href="#DejaVuSans-3d" transform="translate(393.652344 0)"/>
     <use xlink:href="#DejaVuSans-20" transform="translate(477.441406 0)"/>
     <use xlink:href="#DejaVuSans-31" transform="translate(509.228516 0)"/>
     <use xlink:href="#DejaVuSans-30" transform="translate(572.851562 0)"/>
     <use xlink:href="#DejaVuSans-20" transform="translate(636.474609 0)"/>
     <use xlink:href="#DejaVuSans-7c" transform="translate(668.261719 0)"/>
     <use xlink:href="#DejaVuSans-20" transform="translate(701.953125 0)"/>
     <use xlink:href="#DejaVuSans-6e" transform="translate(733.740234 0)"/>
     <use xlink:href="#DejaVuSans-75" transform="translate(797.119141 0)"/>
     <use xlink:href="#DejaVuSans-6d" transform="translate(860.498047 0)"/>
     <use xlink:href="#DejaVuSans-73" transform="translate(957.910156 0)"/>
     <use xlink:href="#DejaVuSans-20" transform="translate(1010.009766 0)"/>
     <use xlink:href="#DejaVuSans-3d" transform="translate(1041.796875 0)"/>
     <use xlink:href="#DejaVuSans-20" transform="translate(1125.585938 0)"/>
     <use xlink:href="#DejaVuSans-31" transform="translate(1157.373047 0)"/>
     <use xlink:href="#DejaVuSans-30" transform="translate(1220.996094 0)"/>
     <use xlink:href="#DejaVuSans-30" transform="translate(1284.619141 0)"/>
     <use xlink:href="#DejaVuSans-30" transform="translate(1348.242188 0)"/>
     <use xlink:href="#DejaVuSans-30" transform="translate(1411.865234 0)"/>
     <use xlink:href="#DejaVuSans-30" transform="translate(1475.488281 0)"/>
    </g>
   </g>
  </g>
  <g id="axes_4">
   <g id="patch_11">
    <path d="M 70.160625 661.315938 
L 373.924496 661.315938 
L 373.924496 363.695938 
L 70.160625 363.695938 
z
" style="fill: #eaeaf2"/>
   </g>
   <g id="matplotlib.axis_7">
    <g id="xtick_19">
     <g id="line2d_31">
      <path d="M 83.968046 661.315938 
L 83.968046 363.695938 
" clip-path="url(#p4542eaa538)" style="fill: none; stroke: #ffffff; stroke-width: 1.5; stroke-linecap: round"/>
     </g>
    </g>
    <g id="xtick_20">
     <g id="line2d_32">
      <path d="M 139.197846 661.315938 
L 139.197846 363.695938 
" clip-path="url(#p4542eaa538)" style="fill: none; stroke: #ffffff; stroke-width: 1.5; stroke-linecap: round"/>
     </g>
    </g>
    <g id="xtick_21">
     <g id="line2d_33">
      <path d="M 194.427647 661.315938 
L 194.427647 363.695938 
" clip-path="url(#p4542eaa538)" style="fill: none; stroke: #ffffff; stroke-width: 1.5; stroke-linecap: round"/>
     </g>
    </g>
    <g id="xtick_22">
     <g id="line2d_34">
      <path d="M 249.657447 661.315938 
L 249.657447 363.695938 
" clip-path="url(#p4542eaa538)" style="fill: none; stroke: #ffffff; stroke-width: 1.5; stroke-linecap: round"/>
     </g>
    </g>
    <g id="xtick_23">
     <g id="line2d_35">
      <path d="M 304.887247 661.315938 
L 304.887247 363.695938 
" clip-path="url(#p4542eaa538)" style="fill: none; stroke: #ffffff; stroke-width: 1.5; stroke-linecap: round"/>
     </g>
    </g>
    <g id="xtick_24">
     <g id="line2d_36">
      <path d="M 360.117048 661.315938 
L 360.117048 363.695938 
" clip-path="url(#p4542eaa538)" style="fill: none; stroke: #ffffff; stroke-width: 1.5; stroke-linecap: round"/>
     </g>
    </g>
   </g>
   <g id="matplotlib.axis_8">
    <g id="ytick_70">
     <g id="line2d_37">
      <path d="M 70.160625 647.823407 
L 373.924496 647.823407 
" clip-path="url(#p4542eaa538)" style="fill: none; stroke: #ffffff; stroke-width: 1.5; stroke-linecap: round"/>
     </g>
     <g id="text_8">
      <!-- $\mathdefault{10^{0}}$ -->
      <g style="fill: #262626" transform="translate(28.620625 654.092118) scale(0.165 -0.165)">
       <use xlink:href="#DejaVuSans-31" transform="translate(0 0.765625)"/>
       <use xlink:href="#DejaVuSans-30" transform="translate(63.623047 0.765625)"/>
       <use xlink:href="#DejaVuSans-30" transform="translate(128.203125 39.046875) scale(0.7)"/>
      </g>
     </g>
    </g>
    <g id="ytick_71">
     <g id="line2d_38">
      <path d="M 70.160625 534.401776 
L 373.924496 534.401776 
" clip-path="url(#p4542eaa538)" style="fill: none; stroke: #ffffff; stroke-width: 1.5; stroke-linecap: round"/>
     </g>
     <g id="text_9">
      <!-- $\mathdefault{10^{1}}$ -->
      <g style="fill: #262626" transform="translate(28.620625 540.670487) scale(0.165 -0.165)">
       <use xlink:href="#DejaVuSans-31" transform="translate(0 0.684375)"/>
       <use xlink:href="#DejaVuSans-30" transform="translate(63.623047 0.684375)"/>
       <use xlink:href="#DejaVuSans-31" transform="translate(128.203125 38.965625) scale(0.7)"/>
      </g>
     </g>
    </g>
    <g id="ytick_72">
     <g id="line2d_39">
      <path d="M 70.160625 420.980146 
L 373.924496 420.980146 
" clip-path="url(#p4542eaa538)" style="fill: none; stroke: #ffffff; stroke-width: 1.5; stroke-linecap: round"/>
     </g>
     <g id="text_10">
      <!-- $\mathdefault{10^{2}}$ -->
      <g style="fill: #262626" transform="translate(28.620625 427.248857) scale(0.165 -0.165)">
       <use xlink:href="#DejaVuSans-31" transform="translate(0 0.765625)"/>
       <use xlink:href="#DejaVuSans-30" transform="translate(63.623047 0.765625)"/>
       <use xlink:href="#DejaVuSans-32" transform="translate(128.203125 39.046875) scale(0.7)"/>
      </g>
     </g>
    </g>
    <g id="ytick_73"/>
    <g id="ytick_74"/>
    <g id="ytick_75"/>
    <g id="ytick_76"/>
    <g id="ytick_77"/>
    <g id="ytick_78"/>
    <g id="ytick_79"/>
    <g id="ytick_80"/>
    <g id="ytick_81"/>
    <g id="ytick_82"/>
    <g id="ytick_83"/>
    <g id="ytick_84"/>
    <g id="ytick_85"/>
    <g id="ytick_86"/>
    <g id="ytick_87"/>
    <g id="ytick_88"/>
    <g id="ytick_89"/>
    <g id="ytick_90"/>
    <g id="ytick_91"/>
    <g id="ytick_92"/>
    <g id="text_11">
     <!-- perplexity -->
     <g style="fill: #262626" transform="translate(20.877188 557.73375) rotate(-90) scale(0.18 -0.18)">
      <use xlink:href="#DejaVuSans-70"/>
      <use xlink:href="#DejaVuSans-65" transform="translate(63.476562 0)"/>
      <use xlink:href="#DejaVuSans-72" transform="translate(125 0)"/>
      <use xlink:href="#DejaVuSans-70" transform="translate(166.113281 0)"/>
      <use xlink:href="#DejaVuSans-6c" transform="translate(229.589844 0)"/>
      <use xlink:href="#DejaVuSans-65" transform="translate(257.373047 0)"/>
      <use xlink:href="#DejaVuSans-78" transform="translate(317.146484 0)"/>
      <use xlink:href="#DejaVuSans-69" transform="translate(376.326172 0)"/>
      <use xlink:href="#DejaVuSans-74" transform="translate(404.109375 0)"/>
      <use xlink:href="#DejaVuSans-79" transform="translate(443.318359 0)"/>
     </g>
    </g>
   </g>
   <g id="FillBetweenPolyCollection_4">
    <defs>
     <path id="m61ba6ea85c" d="M 83.968074 -595.069132 
L 83.968074 -593.070799 
L 98.50221 -531.042735 
L 113.036374 -552.119016 
L 127.570537 -553.524179 
L 142.104674 -554.311616 
L 156.638837 -554.791664 
L 171.173001 -555.146048 
L 185.707165 -555.456979 
L 200.241301 -555.41825 
L 214.775465 -555.412211 
L 229.309629 -555.59479 
L 243.843793 -555.780113 
L 258.377929 -555.897223 
L 272.912092 -555.862878 
L 287.446256 -555.832339 
L 301.98042 -555.839533 
L 316.514556 -555.820072 
L 331.04872 -555.838069 
L 345.582884 -555.842956 
L 360.117048 -555.839235 
L 360.117048 -556.860584 
L 360.117048 -556.860584 
L 345.582884 -556.860823 
L 331.04872 -556.888179 
L 316.514556 -556.874875 
L 301.98042 -556.84944 
L 287.446256 -556.900714 
L 272.912092 -556.888776 
L 258.377929 -556.936308 
L 243.843793 -557.086285 
L 229.309629 -556.92617 
L 214.775465 -556.99845 
L 200.241301 -556.787658 
L 185.707165 -556.637967 
L 171.173001 -556.026909 
L 156.638837 -555.665794 
L 142.104674 -555.113876 
L 127.570537 -554.20947 
L 113.036374 -553.131329 
L 98.50221 -534.866133 
L 83.968074 -595.069132 
z
" style="stroke: #4c72b0; stroke-opacity: 0.2; stroke-width: 1.5"/>
    </defs>
    <g clip-path="url(#p4542eaa538)">
     <use xlink:href="#m61ba6ea85c" x="0" y="1055.145469" style="fill: #4c72b0; fill-opacity: 0.2; stroke: #4c72b0; stroke-opacity: 0.2; stroke-width: 1.5"/>
    </g>
   </g>
   <g id="line2d_40">
    <path d="M 83.968074 460.969783 
L 98.50221 521.867277 
L 113.036374 502.432391 
L 127.570537 501.326594 
L 142.104674 500.490347 
L 156.638837 499.962636 
L 171.173001 499.618041 
L 185.707165 499.094456 
L 200.241301 499.203723 
L 214.775465 499.064499 
L 229.309629 498.91881 
L 243.843793 498.70794 
L 258.377929 498.725963 
L 272.912092 498.766971 
L 287.446256 498.776046 
L 301.98042 498.797976 
L 316.514556 498.795172 
L 331.04872 498.790636 
L 345.582884 498.79095 
L 360.117048 498.792912 
" clip-path="url(#p4542eaa538)" style="fill: none; stroke: #4c72b0; stroke-width: 2.25; stroke-linecap: round"/>
   </g>
   <g id="patch_12">
    <path d="M 70.160625 661.315938 
L 70.160625 363.695938 
" style="fill: none; stroke: #ffffff; stroke-width: 1.875; stroke-linejoin: miter; stroke-linecap: square"/>
   </g>
   <g id="patch_13">
    <path d="M 70.160625 661.315938 
L 373.924496 661.315938 
" style="fill: none; stroke: #ffffff; stroke-width: 1.875; stroke-linejoin: miter; stroke-linecap: square"/>
   </g>
   <g id="text_12">
    <!-- classes = 100 | nums = 1000 -->
    <g style="fill: #262626" transform="translate(89.251779 357.695938) scale(0.18 -0.18)">
     <use xlink:href="#DejaVuSans-63"/>
     <use xlink:href="#DejaVuSans-6c" transform="translate(54.980469 0)"/>
     <use xlink:href="#DejaVuSans-61" transform="translate(82.763672 0)"/>
     <use xlink:href="#DejaVuSans-73" transform="translate(144.042969 0)"/>
     <use xlink:href="#DejaVuSans-73" transform="translate(196.142578 0)"/>
     <use xlink:href="#DejaVuSans-65" transform="translate(248.242188 0)"/>
     <use xlink:href="#DejaVuSans-73" transform="translate(309.765625 0)"/>
     <use xlink:href="#DejaVuSans-20" transform="translate(361.865234 0)"/>
     <use xlink:href="#DejaVuSans-3d" transform="translate(393.652344 0)"/>
     <use xlink:href="#DejaVuSans-20" transform="translate(477.441406 0)"/>
     <use xlink:href="#DejaVuSans-31" transform="translate(509.228516 0)"/>
     <use xlink:href="#DejaVuSans-30" transform="translate(572.851562 0)"/>
     <use xlink:href="#DejaVuSans-30" transform="translate(636.474609 0)"/>
     <use xlink:href="#DejaVuSans-20" transform="translate(700.097656 0)"/>
     <use xlink:href="#DejaVuSans-7c" transform="translate(731.884766 0)"/>
     <use xlink:href="#DejaVuSans-20" transform="translate(765.576172 0)"/>
     <use xlink:href="#DejaVuSans-6e" transform="translate(797.363281 0)"/>
     <use xlink:href="#DejaVuSans-75" transform="translate(860.742188 0)"/>
     <use xlink:href="#DejaVuSans-6d" transform="translate(924.121094 0)"/>
     <use xlink:href="#DejaVuSans-73" transform="translate(1021.533203 0)"/>
     <use xlink:href="#DejaVuSans-20" transform="translate(1073.632812 0)"/>
     <use xlink:href="#DejaVuSans-3d" transform="translate(1105.419922 0)"/>
     <use xlink:href="#DejaVuSans-20" transform="translate(1189.208984 0)"/>
     <use xlink:href="#DejaVuSans-31" transform="translate(1220.996094 0)"/>
     <use xlink:href="#DejaVuSans-30" transform="translate(1284.619141 0)"/>
     <use xlink:href="#DejaVuSans-30" transform="translate(1348.242188 0)"/>
     <use xlink:href="#DejaVuSans-30" transform="translate(1411.865234 0)"/>
    </g>
   </g>
  </g>
  <g id="axes_5">
   <g id="patch_14">
    <path d="M 403.622856 661.315938 
L 707.386727 661.315938 
L 707.386727 363.695938 
L 403.622856 363.695938 
z
" style="fill: #eaeaf2"/>
   </g>
   <g id="matplotlib.axis_9">
    <g id="xtick_25">
     <g id="line2d_41">
      <path d="M 417.430277 661.315938 
L 417.430277 363.695938 
" clip-path="url(#p8c235598fc)" style="fill: none; stroke: #ffffff; stroke-width: 1.5; stroke-linecap: round"/>
     </g>
    </g>
    <g id="xtick_26">
     <g id="line2d_42">
      <path d="M 472.660077 661.315938 
L 472.660077 363.695938 
" clip-path="url(#p8c235598fc)" style="fill: none; stroke: #ffffff; stroke-width: 1.5; stroke-linecap: round"/>
     </g>
    </g>
    <g id="xtick_27">
     <g id="line2d_43">
      <path d="M 527.889878 661.315938 
L 527.889878 363.695938 
" clip-path="url(#p8c235598fc)" style="fill: none; stroke: #ffffff; stroke-width: 1.5; stroke-linecap: round"/>
     </g>
    </g>
    <g id="xtick_28">
     <g id="line2d_44">
      <path d="M 583.119678 661.315938 
L 583.119678 363.695938 
" clip-path="url(#p8c235598fc)" style="fill: none; stroke: #ffffff; stroke-width: 1.5; stroke-linecap: round"/>
     </g>
    </g>
    <g id="xtick_29">
     <g id="line2d_45">
      <path d="M 638.349478 661.315938 
L 638.349478 363.695938 
" clip-path="url(#p8c235598fc)" style="fill: none; stroke: #ffffff; stroke-width: 1.5; stroke-linecap: round"/>
     </g>
    </g>
    <g id="xtick_30">
     <g id="line2d_46">
      <path d="M 693.579279 661.315938 
L 693.579279 363.695938 
" clip-path="url(#p8c235598fc)" style="fill: none; stroke: #ffffff; stroke-width: 1.5; stroke-linecap: round"/>
     </g>
    </g>
   </g>
   <g id="matplotlib.axis_10">
    <g id="ytick_93">
     <g id="line2d_47">
      <path d="M 403.622856 647.823407 
L 707.386727 647.823407 
" clip-path="url(#p8c235598fc)" style="fill: none; stroke: #ffffff; stroke-width: 1.5; stroke-linecap: round"/>
     </g>
    </g>
    <g id="ytick_94">
     <g id="line2d_48">
      <path d="M 403.622856 534.401776 
L 707.386727 534.401776 
" clip-path="url(#p8c235598fc)" style="fill: none; stroke: #ffffff; stroke-width: 1.5; stroke-linecap: round"/>
     </g>
    </g>
    <g id="ytick_95">
     <g id="line2d_49">
      <path d="M 403.622856 420.980146 
L 707.386727 420.980146 
" clip-path="url(#p8c235598fc)" style="fill: none; stroke: #ffffff; stroke-width: 1.5; stroke-linecap: round"/>
     </g>
    </g>
    <g id="ytick_96"/>
    <g id="ytick_97"/>
    <g id="ytick_98"/>
    <g id="ytick_99"/>
    <g id="ytick_100"/>
    <g id="ytick_101"/>
    <g id="ytick_102"/>
    <g id="ytick_103"/>
    <g id="ytick_104"/>
    <g id="ytick_105"/>
    <g id="ytick_106"/>
    <g id="ytick_107"/>
    <g id="ytick_108"/>
    <g id="ytick_109"/>
    <g id="ytick_110"/>
    <g id="ytick_111"/>
    <g id="ytick_112"/>
    <g id="ytick_113"/>
    <g id="ytick_114"/>
    <g id="ytick_115"/>
   </g>
   <g id="FillBetweenPolyCollection_5">
    <defs>
     <path id="m003f85d942" d="M 417.430305 -595.069132 
L 417.430305 -593.070799 
L 431.964441 -444.058082 
L 446.498605 -508.569763 
L 461.032768 -518.567774 
L 475.566905 -522.340488 
L 490.101068 -523.617628 
L 504.635232 -524.757897 
L 519.169396 -524.787217 
L 533.703532 -525.807576 
L 548.237696 -526.45008 
L 562.77186 -526.405329 
L 577.306024 -527.046068 
L 591.84016 -528.454062 
L 606.374324 -528.62341 
L 620.908487 -529.302873 
L 635.442651 -528.555659 
L 649.976787 -528.948854 
L 664.510951 -528.903955 
L 679.045115 -528.879731 
L 693.579279 -528.876473 
L 693.579279 -533.143031 
L 693.579279 -533.143031 
L 679.045115 -533.160528 
L 664.510951 -533.19645 
L 649.976787 -533.236263 
L 635.442651 -533.063322 
L 620.908487 -533.069021 
L 606.374324 -532.85903 
L 591.84016 -532.722782 
L 577.306024 -531.862033 
L 562.77186 -531.404036 
L 548.237696 -530.854557 
L 533.703532 -529.352329 
L 519.169396 -528.879411 
L 504.635232 -528.233668 
L 490.101068 -526.483154 
L 475.566905 -525.141517 
L 461.032768 -520.409618 
L 446.498605 -514.266198 
L 431.964441 -447.134238 
L 417.430305 -595.069132 
z
" style="stroke: #4c72b0; stroke-opacity: 0.2; stroke-width: 1.5"/>
    </defs>
    <g clip-path="url(#p8c235598fc)">
     <use xlink:href="#m003f85d942" x="0" y="1055.145469" style="fill: #4c72b0; fill-opacity: 0.2; stroke: #4c72b0; stroke-opacity: 0.2; stroke-width: 1.5"/>
    </g>
   </g>
   <g id="line2d_50">
    <path d="M 417.430305 460.969783 
L 431.964441 609.366211 
L 446.498605 543.241003 
L 461.032768 535.676455 
L 475.566905 531.385519 
L 490.101068 529.768185 
L 504.635232 528.417911 
L 519.169396 527.91825 
L 533.703532 527.189465 
L 548.237696 526.336369 
L 562.77186 525.684551 
L 577.306024 525.309652 
L 591.84016 524.313547 
L 606.374324 524.06406 
L 620.908487 523.865167 
L 635.442651 523.90076 
L 649.976787 523.79063 
L 664.510951 523.840652 
L 679.045115 523.850148 
L 693.579279 523.858432 
" clip-path="url(#p8c235598fc)" style="fill: none; stroke: #4c72b0; stroke-width: 2.25; stroke-linecap: round"/>
   </g>
   <g id="patch_15">
    <path d="M 403.622856 661.315938 
L 403.622856 363.695938 
" style="fill: none; stroke: #ffffff; stroke-width: 1.875; stroke-linejoin: miter; stroke-linecap: square"/>
   </g>
   <g id="patch_16">
    <path d="M 403.622856 661.315938 
L 707.386727 661.315938 
" style="fill: none; stroke: #ffffff; stroke-width: 1.875; stroke-linejoin: miter; stroke-linecap: square"/>
   </g>
   <g id="text_13">
    <!-- classes = 100 | nums = 10000 -->
    <g style="fill: #262626" transform="translate(416.98776 357.695938) scale(0.18 -0.18)">
     <use xlink:href="#DejaVuSans-63"/>
     <use xlink:href="#DejaVuSans-6c" transform="translate(54.980469 0)"/>
     <use xlink:href="#DejaVuSans-61" transform="translate(82.763672 0)"/>
     <use xlink:href="#DejaVuSans-73" transform="translate(144.042969 0)"/>
     <use xlink:href="#DejaVuSans-73" transform="translate(196.142578 0)"/>
     <use xlink:href="#DejaVuSans-65" transform="translate(248.242188 0)"/>
     <use xlink:href="#DejaVuSans-73" transform="translate(309.765625 0)"/>
     <use xlink:href="#DejaVuSans-20" transform="translate(361.865234 0)"/>
     <use xlink:href="#DejaVuSans-3d" transform="translate(393.652344 0)"/>
     <use xlink:href="#DejaVuSans-20" transform="translate(477.441406 0)"/>
     <use xlink:href="#DejaVuSans-31" transform="translate(509.228516 0)"/>
     <use xlink:href="#DejaVuSans-30" transform="translate(572.851562 0)"/>
     <use xlink:href="#DejaVuSans-30" transform="translate(636.474609 0)"/>
     <use xlink:href="#DejaVuSans-20" transform="translate(700.097656 0)"/>
     <use xlink:href="#DejaVuSans-7c" transform="translate(731.884766 0)"/>
     <use xlink:href="#DejaVuSans-20" transform="translate(765.576172 0)"/>
     <use xlink:href="#DejaVuSans-6e" transform="translate(797.363281 0)"/>
     <use xlink:href="#DejaVuSans-75" transform="translate(860.742188 0)"/>
     <use xlink:href="#DejaVuSans-6d" transform="translate(924.121094 0)"/>
     <use xlink:href="#DejaVuSans-73" transform="translate(1021.533203 0)"/>
     <use xlink:href="#DejaVuSans-20" transform="translate(1073.632812 0)"/>
     <use xlink:href="#DejaVuSans-3d" transform="translate(1105.419922 0)"/>
     <use xlink:href="#DejaVuSans-20" transform="translate(1189.208984 0)"/>
     <use xlink:href="#DejaVuSans-31" transform="translate(1220.996094 0)"/>
     <use xlink:href="#DejaVuSans-30" transform="translate(1284.619141 0)"/>
     <use xlink:href="#DejaVuSans-30" transform="translate(1348.242188 0)"/>
     <use xlink:href="#DejaVuSans-30" transform="translate(1411.865234 0)"/>
     <use xlink:href="#DejaVuSans-30" transform="translate(1475.488281 0)"/>
    </g>
   </g>
  </g>
  <g id="axes_6">
   <g id="patch_17">
    <path d="M 737.085087 661.315938 
L 1040.848958 661.315938 
L 1040.848958 363.695938 
L 737.085087 363.695938 
z
" style="fill: #eaeaf2"/>
   </g>
   <g id="matplotlib.axis_11">
    <g id="xtick_31">
     <g id="line2d_51">
      <path d="M 750.892508 661.315938 
L 750.892508 363.695938 
" clip-path="url(#p29ee47870f)" style="fill: none; stroke: #ffffff; stroke-width: 1.5; stroke-linecap: round"/>
     </g>
    </g>
    <g id="xtick_32">
     <g id="line2d_52">
      <path d="M 806.122308 661.315938 
L 806.122308 363.695938 
" clip-path="url(#p29ee47870f)" style="fill: none; stroke: #ffffff; stroke-width: 1.5; stroke-linecap: round"/>
     </g>
    </g>
    <g id="xtick_33">
     <g id="line2d_53">
      <path d="M 861.352109 661.315938 
L 861.352109 363.695938 
" clip-path="url(#p29ee47870f)" style="fill: none; stroke: #ffffff; stroke-width: 1.5; stroke-linecap: round"/>
     </g>
    </g>
    <g id="xtick_34">
     <g id="line2d_54">
      <path d="M 916.581909 661.315938 
L 916.581909 363.695938 
" clip-path="url(#p29ee47870f)" style="fill: none; stroke: #ffffff; stroke-width: 1.5; stroke-linecap: round"/>
     </g>
    </g>
    <g id="xtick_35">
     <g id="line2d_55">
      <path d="M 971.811709 661.315938 
L 971.811709 363.695938 
" clip-path="url(#p29ee47870f)" style="fill: none; stroke: #ffffff; stroke-width: 1.5; stroke-linecap: round"/>
     </g>
    </g>
    <g id="xtick_36">
     <g id="line2d_56">
      <path d="M 1027.04151 661.315938 
L 1027.04151 363.695938 
" clip-path="url(#p29ee47870f)" style="fill: none; stroke: #ffffff; stroke-width: 1.5; stroke-linecap: round"/>
     </g>
    </g>
   </g>
   <g id="matplotlib.axis_12">
    <g id="ytick_116">
     <g id="line2d_57">
      <path d="M 737.085087 647.823407 
L 1040.848958 647.823407 
" clip-path="url(#p29ee47870f)" style="fill: none; stroke: #ffffff; stroke-width: 1.5; stroke-linecap: round"/>
     </g>
    </g>
    <g id="ytick_117">
     <g id="line2d_58">
      <path d="M 737.085087 534.401776 
L 1040.848958 534.401776 
" clip-path="url(#p29ee47870f)" style="fill: none; stroke: #ffffff; stroke-width: 1.5; stroke-linecap: round"/>
     </g>
    </g>
    <g id="ytick_118">
     <g id="line2d_59">
      <path d="M 737.085087 420.980146 
L 1040.848958 420.980146 
" clip-path="url(#p29ee47870f)" style="fill: none; stroke: #ffffff; stroke-width: 1.5; stroke-linecap: round"/>
     </g>
    </g>
    <g id="ytick_119"/>
    <g id="ytick_120"/>
    <g id="ytick_121"/>
    <g id="ytick_122"/>
    <g id="ytick_123"/>
    <g id="ytick_124"/>
    <g id="ytick_125"/>
    <g id="ytick_126"/>
    <g id="ytick_127"/>
    <g id="ytick_128"/>
    <g id="ytick_129"/>
    <g id="ytick_130"/>
    <g id="ytick_131"/>
    <g id="ytick_132"/>
    <g id="ytick_133"/>
    <g id="ytick_134"/>
    <g id="ytick_135"/>
    <g id="ytick_136"/>
    <g id="ytick_137"/>
    <g id="ytick_138"/>
   </g>
   <g id="FillBetweenPolyCollection_6">
    <defs>
     <path id="mc5002de685" d="M 750.892536 -595.241603 
L 750.892536 -593.070799 
L 765.426672 -444.834569 
L 779.960836 -420.700221 
L 794.494999 -411.773192 
L 809.029136 -410.320421 
L 823.563299 -409.352147 
L 838.097463 -408.816871 
L 852.631627 -408.544282 
L 867.165763 -408.239077 
L 881.699927 -408.071184 
L 896.234091 -407.755987 
L 910.768255 -407.972402 
L 925.302391 -407.816091 
L 939.836555 -407.750396 
L 954.370718 -407.668569 
L 968.904882 -407.652717 
L 983.439018 -407.631021 
L 997.973182 -407.599877 
L 1012.507346 -407.61341 
L 1027.04151 -407.613346 
L 1027.04151 -407.896585 
L 1027.04151 -407.896585 
L 1012.507346 -407.948632 
L 997.973182 -407.975366 
L 983.439018 -408.038847 
L 968.904882 -408.232678 
L 954.370718 -408.156817 
L 939.836555 -408.169862 
L 925.302391 -408.327344 
L 910.768255 -408.641065 
L 896.234091 -409.087749 
L 881.699927 -409.771876 
L 867.165763 -410.031033 
L 852.631627 -409.067194 
L 838.097463 -409.431279 
L 823.563299 -410.682162 
L 809.029136 -411.981754 
L 794.494999 -416.401416 
L 779.960836 -434.452665 
L 765.426672 -448.309101 
L 750.892536 -595.241603 
z
" style="stroke: #4c72b0; stroke-opacity: 0.2; stroke-width: 1.5"/>
    </defs>
    <g clip-path="url(#p29ee47870f)">
     <use xlink:href="#mc5002de685" x="0" y="1055.145469" style="fill: #4c72b0; fill-opacity: 0.2; stroke: #4c72b0; stroke-opacity: 0.2; stroke-width: 1.5"/>
    </g>
   </g>
   <g id="line2d_60">
    <path d="M 750.892536 460.969783 
L 765.426672 608.234045 
L 779.960836 627.248122 
L 794.494999 641.003827 
L 809.029136 643.987378 
L 823.563299 645.127128 
L 838.097463 646.043751 
L 852.631627 646.358364 
L 867.165763 646.24936 
L 881.699927 646.340942 
L 896.234091 646.848013 
L 910.768255 646.832473 
L 925.302391 647.073088 
L 939.836555 647.160938 
L 954.370718 647.232171 
L 968.904882 647.155275 
L 983.439018 647.310113 
L 997.973182 647.357489 
L 1012.507346 647.370375 
L 1027.04151 647.3903 
" clip-path="url(#p29ee47870f)" style="fill: none; stroke: #4c72b0; stroke-width: 2.25; stroke-linecap: round"/>
   </g>
   <g id="patch_18">
    <path d="M 737.085087 661.315938 
L 737.085087 363.695938 
" style="fill: none; stroke: #ffffff; stroke-width: 1.875; stroke-linejoin: miter; stroke-linecap: square"/>
   </g>
   <g id="patch_19">
    <path d="M 737.085087 661.315938 
L 1040.848958 661.315938 
" style="fill: none; stroke: #ffffff; stroke-width: 1.875; stroke-linejoin: miter; stroke-linecap: square"/>
   </g>
   <g id="text_14">
    <!-- classes = 100 | nums = 100000 -->
    <g style="fill: #262626" transform="translate(744.723741 357.695938) scale(0.18 -0.18)">
     <use xlink:href="#DejaVuSans-63"/>
     <use xlink:href="#DejaVuSans-6c" transform="translate(54.980469 0)"/>
     <use xlink:href="#DejaVuSans-61" transform="translate(82.763672 0)"/>
     <use xlink:href="#DejaVuSans-73" transform="translate(144.042969 0)"/>
     <use xlink:href="#DejaVuSans-73" transform="translate(196.142578 0)"/>
     <use xlink:href="#DejaVuSans-65" transform="translate(248.242188 0)"/>
     <use xlink:href="#DejaVuSans-73" transform="translate(309.765625 0)"/>
     <use xlink:href="#DejaVuSans-20" transform="translate(361.865234 0)"/>
     <use xlink:href="#DejaVuSans-3d" transform="translate(393.652344 0)"/>
     <use xlink:href="#DejaVuSans-20" transform="translate(477.441406 0)"/>
     <use xlink:href="#DejaVuSans-31" transform="translate(509.228516 0)"/>
     <use xlink:href="#DejaVuSans-30" transform="translate(572.851562 0)"/>
     <use xlink:href="#DejaVuSans-30" transform="translate(636.474609 0)"/>
     <use xlink:href="#DejaVuSans-20" transform="translate(700.097656 0)"/>
     <use xlink:href="#DejaVuSans-7c" transform="translate(731.884766 0)"/>
     <use xlink:href="#DejaVuSans-20" transform="translate(765.576172 0)"/>
     <use xlink:href="#DejaVuSans-6e" transform="translate(797.363281 0)"/>
     <use xlink:href="#DejaVuSans-75" transform="translate(860.742188 0)"/>
     <use xlink:href="#DejaVuSans-6d" transform="translate(924.121094 0)"/>
     <use xlink:href="#DejaVuSans-73" transform="translate(1021.533203 0)"/>
     <use xlink:href="#DejaVuSans-20" transform="translate(1073.632812 0)"/>
     <use xlink:href="#DejaVuSans-3d" transform="translate(1105.419922 0)"/>
     <use xlink:href="#DejaVuSans-20" transform="translate(1189.208984 0)"/>
     <use xlink:href="#DejaVuSans-31" transform="translate(1220.996094 0)"/>
     <use xlink:href="#DejaVuSans-30" transform="translate(1284.619141 0)"/>
     <use xlink:href="#DejaVuSans-30" transform="translate(1348.242188 0)"/>
     <use xlink:href="#DejaVuSans-30" transform="translate(1411.865234 0)"/>
     <use xlink:href="#DejaVuSans-30" transform="translate(1475.488281 0)"/>
     <use xlink:href="#DejaVuSans-30" transform="translate(1539.111328 0)"/>
    </g>
   </g>
  </g>
  <g id="axes_7">
   <g id="patch_20">
    <path d="M 70.160625 998.055938 
L 373.924496 998.055938 
L 373.924496 700.435938 
L 70.160625 700.435938 
z
" style="fill: #eaeaf2"/>
   </g>
   <g id="matplotlib.axis_13">
    <g id="xtick_37">
     <g id="line2d_61">
      <path d="M 83.968046 998.055938 
L 83.968046 700.435938 
" clip-path="url(#p546c4a403c)" style="fill: none; stroke: #ffffff; stroke-width: 1.5; stroke-linecap: round"/>
     </g>
     <g id="text_15">
      <!-- $\mathdefault{0.0}$ -->
      <g style="fill: #262626" transform="translate(70.768046 1023.093359) scale(0.165 -0.165)">
       <defs>
        <path id="DejaVuSans-2e" d="M 684 794 
L 1344 794 
L 1344 0 
L 684 0 
L 684 794 
z
" transform="scale(0.015625)"/>
       </defs>
       <use xlink:href="#DejaVuSans-30" transform="translate(0 0.78125)"/>
       <use xlink:href="#DejaVuSans-2e" transform="translate(63.623047 0.78125)"/>
       <use xlink:href="#DejaVuSans-30" transform="translate(95.410156 0.78125)"/>
      </g>
     </g>
    </g>
    <g id="xtick_38">
     <g id="line2d_62">
      <path d="M 139.197846 998.055938 
L 139.197846 700.435938 
" clip-path="url(#p546c4a403c)" style="fill: none; stroke: #ffffff; stroke-width: 1.5; stroke-linecap: round"/>
     </g>
     <g id="text_16">
      <!-- $\mathdefault{0.2}$ -->
      <g style="fill: #262626" transform="translate(126.492846 1023.093359) scale(0.165 -0.165)">
       <use xlink:href="#DejaVuSans-30" transform="translate(0 0.78125)"/>
       <use xlink:href="#DejaVuSans-2e" transform="translate(63.623047 0.78125)"/>
       <use xlink:href="#DejaVuSans-32" transform="translate(89.910156 0.78125)"/>
      </g>
     </g>
    </g>
    <g id="xtick_39">
     <g id="line2d_63">
      <path d="M 194.427647 998.055938 
L 194.427647 700.435938 
" clip-path="url(#p546c4a403c)" style="fill: none; stroke: #ffffff; stroke-width: 1.5; stroke-linecap: round"/>
     </g>
     <g id="text_17">
      <!-- $\mathdefault{0.4}$ -->
      <g style="fill: #262626" transform="translate(181.227647 1023.093359) scale(0.165 -0.165)">
       <defs>
        <path id="DejaVuSans-34" d="M 2419 4116 
L 825 1625 
L 2419 1625 
L 2419 4116 
z
M 2253 4666 
L 3047 4666 
L 3047 1625 
L 3713 1625 
L 3713 1100 
L 3047 1100 
L 3047 0 
L 2419 0 
L 2419 1100 
L 313 1100 
L 313 1709 
L 2253 4666 
z
" transform="scale(0.015625)"/>
       </defs>
       <use xlink:href="#DejaVuSans-30" transform="translate(0 0.78125)"/>
       <use xlink:href="#DejaVuSans-2e" transform="translate(63.623047 0.78125)"/>
       <use xlink:href="#DejaVuSans-34" transform="translate(95.410156 0.78125)"/>
      </g>
     </g>
    </g>
    <g id="xtick_40">
     <g id="line2d_64">
      <path d="M 249.657447 998.055938 
L 249.657447 700.435938 
" clip-path="url(#p546c4a403c)" style="fill: none; stroke: #ffffff; stroke-width: 1.5; stroke-linecap: round"/>
     </g>
     <g id="text_18">
      <!-- $\mathdefault{0.6}$ -->
      <g style="fill: #262626" transform="translate(236.457447 1023.093359) scale(0.165 -0.165)">
       <defs>
        <path id="DejaVuSans-36" d="M 2113 2584 
Q 1688 2584 1439 2293 
Q 1191 2003 1191 1497 
Q 1191 994 1439 701 
Q 1688 409 2113 409 
Q 2538 409 2786 701 
Q 3034 994 3034 1497 
Q 3034 2003 2786 2293 
Q 2538 2584 2113 2584 
z
M 3366 4563 
L 3366 3988 
Q 3128 4100 2886 4159 
Q 2644 4219 2406 4219 
Q 1781 4219 1451 3797 
Q 1122 3375 1075 2522 
Q 1259 2794 1537 2939 
Q 1816 3084 2150 3084 
Q 2853 3084 3261 2657 
Q 3669 2231 3669 1497 
Q 3669 778 3244 343 
Q 2819 -91 2113 -91 
Q 1303 -91 875 529 
Q 447 1150 447 2328 
Q 447 3434 972 4092 
Q 1497 4750 2381 4750 
Q 2619 4750 2861 4703 
Q 3103 4656 3366 4563 
z
" transform="scale(0.015625)"/>
       </defs>
       <use xlink:href="#DejaVuSans-30" transform="translate(0 0.78125)"/>
       <use xlink:href="#DejaVuSans-2e" transform="translate(63.623047 0.78125)"/>
       <use xlink:href="#DejaVuSans-36" transform="translate(95.410156 0.78125)"/>
      </g>
     </g>
    </g>
    <g id="xtick_41">
     <g id="line2d_65">
      <path d="M 304.887247 998.055938 
L 304.887247 700.435938 
" clip-path="url(#p546c4a403c)" style="fill: none; stroke: #ffffff; stroke-width: 1.5; stroke-linecap: round"/>
     </g>
     <g id="text_19">
      <!-- $\mathdefault{0.8}$ -->
      <g style="fill: #262626" transform="translate(291.934747 1023.093359) scale(0.165 -0.165)">
       <defs>
        <path id="DejaVuSans-38" d="M 2034 2216 
Q 1584 2216 1326 1975 
Q 1069 1734 1069 1313 
Q 1069 891 1326 650 
Q 1584 409 2034 409 
Q 2484 409 2743 651 
Q 3003 894 3003 1313 
Q 3003 1734 2745 1975 
Q 2488 2216 2034 2216 
z
M 1403 2484 
Q 997 2584 770 2862 
Q 544 3141 544 3541 
Q 544 4100 942 4425 
Q 1341 4750 2034 4750 
Q 2731 4750 3128 4425 
Q 3525 4100 3525 3541 
Q 3525 3141 3298 2862 
Q 3072 2584 2669 2484 
Q 3125 2378 3379 2068 
Q 3634 1759 3634 1313 
Q 3634 634 3220 271 
Q 2806 -91 2034 -91 
Q 1263 -91 848 271 
Q 434 634 434 1313 
Q 434 1759 690 2068 
Q 947 2378 1403 2484 
z
M 1172 3481 
Q 1172 3119 1398 2916 
Q 1625 2713 2034 2713 
Q 2441 2713 2670 2916 
Q 2900 3119 2900 3481 
Q 2900 3844 2670 4047 
Q 2441 4250 2034 4250 
Q 1625 4250 1398 4047 
Q 1172 3844 1172 3481 
z
" transform="scale(0.015625)"/>
       </defs>
       <use xlink:href="#DejaVuSans-30" transform="translate(0 0.78125)"/>
       <use xlink:href="#DejaVuSans-2e" transform="translate(63.623047 0.78125)"/>
       <use xlink:href="#DejaVuSans-38" transform="translate(92.785156 0.78125)"/>
      </g>
     </g>
    </g>
    <g id="xtick_42">
     <g id="line2d_66">
      <path d="M 360.117048 998.055938 
L 360.117048 700.435938 
" clip-path="url(#p546c4a403c)" style="fill: none; stroke: #ffffff; stroke-width: 1.5; stroke-linecap: round"/>
     </g>
     <g id="text_20">
      <!-- $\mathdefault{1.0}$ -->
      <g style="fill: #262626" transform="translate(346.917048 1023.093359) scale(0.165 -0.165)">
       <use xlink:href="#DejaVuSans-31" transform="translate(0 0.78125)"/>
       <use xlink:href="#DejaVuSans-2e" transform="translate(63.623047 0.78125)"/>
       <use xlink:href="#DejaVuSans-30" transform="translate(95.410156 0.78125)"/>
      </g>
     </g>
    </g>
    <g id="text_21">
     <!-- step -->
     <g style="fill: #262626" transform="translate(202.574436 1044.202031) scale(0.18 -0.18)">
      <use xlink:href="#DejaVuSans-73"/>
      <use xlink:href="#DejaVuSans-74" transform="translate(52.099609 0)"/>
      <use xlink:href="#DejaVuSans-65" transform="translate(91.308594 0)"/>
      <use xlink:href="#DejaVuSans-70" transform="translate(152.832031 0)"/>
     </g>
    </g>
    <g id="text_22">
     <!-- $\times\mathdefault{10^{7}}\mathdefault{}$ -->
     <g style="fill: #262626" transform="translate(331.024496 1042.062266) scale(0.165 -0.165)">
      <defs>
       <path id="DejaVuSans-d7" d="M 4488 3438 
L 3059 2003 
L 4488 575 
L 4116 197 
L 2681 1631 
L 1247 197 
L 878 575 
L 2303 2003 
L 878 3438 
L 1247 3816 
L 2681 2381 
L 4116 3816 
L 4488 3438 
z
" transform="scale(0.015625)"/>
       <path id="DejaVuSans-37" d="M 525 4666 
L 3525 4666 
L 3525 4397 
L 1831 0 
L 1172 0 
L 2766 4134 
L 525 4134 
L 525 4666 
z
" transform="scale(0.015625)"/>
      </defs>
      <use xlink:href="#DejaVuSans-d7" transform="translate(0 0.684375)"/>
      <use xlink:href="#DejaVuSans-31" transform="translate(83.789062 0.684375)"/>
      <use xlink:href="#DejaVuSans-30" transform="translate(147.412109 0.684375)"/>
      <use xlink:href="#DejaVuSans-37" transform="translate(211.992188 38.965625) scale(0.7)"/>
     </g>
    </g>
   </g>
   <g id="matplotlib.axis_14">
    <g id="ytick_139">
     <g id="line2d_67">
      <path d="M 70.160625 984.563407 
L 373.924496 984.563407 
" clip-path="url(#p546c4a403c)" style="fill: none; stroke: #ffffff; stroke-width: 1.5; stroke-linecap: round"/>
     </g>
     <g id="text_23">
      <!-- $\mathdefault{10^{0}}$ -->
      <g style="fill: #262626" transform="translate(28.620625 990.832118) scale(0.165 -0.165)">
       <use xlink:href="#DejaVuSans-31" transform="translate(0 0.765625)"/>
       <use xlink:href="#DejaVuSans-30" transform="translate(63.623047 0.765625)"/>
       <use xlink:href="#DejaVuSans-30" transform="translate(128.203125 39.046875) scale(0.7)"/>
      </g>
     </g>
    </g>
    <g id="ytick_140">
     <g id="line2d_68">
      <path d="M 70.160625 871.141776 
L 373.924496 871.141776 
" clip-path="url(#p546c4a403c)" style="fill: none; stroke: #ffffff; stroke-width: 1.5; stroke-linecap: round"/>
     </g>
     <g id="text_24">
      <!-- $\mathdefault{10^{1}}$ -->
      <g style="fill: #262626" transform="translate(28.620625 877.410487) scale(0.165 -0.165)">
       <use xlink:href="#DejaVuSans-31" transform="translate(0 0.684375)"/>
       <use xlink:href="#DejaVuSans-30" transform="translate(63.623047 0.684375)"/>
       <use xlink:href="#DejaVuSans-31" transform="translate(128.203125 38.965625) scale(0.7)"/>
      </g>
     </g>
    </g>
    <g id="ytick_141">
     <g id="line2d_69">
      <path d="M 70.160625 757.720146 
L 373.924496 757.720146 
" clip-path="url(#p546c4a403c)" style="fill: none; stroke: #ffffff; stroke-width: 1.5; stroke-linecap: round"/>
     </g>
     <g id="text_25">
      <!-- $\mathdefault{10^{2}}$ -->
      <g style="fill: #262626" transform="translate(28.620625 763.988857) scale(0.165 -0.165)">
       <use xlink:href="#DejaVuSans-31" transform="translate(0 0.765625)"/>
       <use xlink:href="#DejaVuSans-30" transform="translate(63.623047 0.765625)"/>
       <use xlink:href="#DejaVuSans-32" transform="translate(128.203125 39.046875) scale(0.7)"/>
      </g>
     </g>
    </g>
    <g id="ytick_142"/>
    <g id="ytick_143"/>
    <g id="ytick_144"/>
    <g id="ytick_145"/>
    <g id="ytick_146"/>
    <g id="ytick_147"/>
    <g id="ytick_148"/>
    <g id="ytick_149"/>
    <g id="ytick_150"/>
    <g id="ytick_151"/>
    <g id="ytick_152"/>
    <g id="ytick_153"/>
    <g id="ytick_154"/>
    <g id="ytick_155"/>
    <g id="ytick_156"/>
    <g id="ytick_157"/>
    <g id="ytick_158"/>
    <g id="ytick_159"/>
    <g id="ytick_160"/>
    <g id="ytick_161"/>
    <g id="text_26">
     <!-- perplexity -->
     <g style="fill: #262626" transform="translate(20.877188 894.47375) rotate(-90) scale(0.18 -0.18)">
      <use xlink:href="#DejaVuSans-70"/>
      <use xlink:href="#DejaVuSans-65" transform="translate(63.476562 0)"/>
      <use xlink:href="#DejaVuSans-72" transform="translate(125 0)"/>
      <use xlink:href="#DejaVuSans-70" transform="translate(166.113281 0)"/>
      <use xlink:href="#DejaVuSans-6c" transform="translate(229.589844 0)"/>
      <use xlink:href="#DejaVuSans-65" transform="translate(257.373047 0)"/>
      <use xlink:href="#DejaVuSans-78" transform="translate(317.146484 0)"/>
      <use xlink:href="#DejaVuSans-69" transform="translate(376.326172 0)"/>
      <use xlink:href="#DejaVuSans-74" transform="translate(404.109375 0)"/>
      <use xlink:href="#DejaVuSans-79" transform="translate(443.318359 0)"/>
     </g>
    </g>
   </g>
   <g id="FillBetweenPolyCollection_7">
    <defs>
     <path id="m87618160f3" d="M 83.968074 -341.181349 
L 83.968074 -340.212062 
L 98.50221 -264.985136 
L 113.036374 -291.442546 
L 127.570537 -293.877726 
L 142.104674 -296.225004 
L 156.638837 -297.693316 
L 171.173001 -298.524174 
L 185.707165 -299.171755 
L 200.241301 -299.545378 
L 214.775465 -300.393498 
L 229.309629 -300.572677 
L 243.843793 -300.169675 
L 258.377929 -300.259849 
L 272.912092 -300.167973 
L 287.446256 -300.08076 
L 301.98042 -300.021165 
L 316.514556 -299.984898 
L 331.04872 -299.982141 
L 345.582884 -299.959373 
L 360.117048 -299.959537 
L 360.117048 -302.524867 
L 360.117048 -302.524867 
L 345.582884 -302.516167 
L 331.04872 -302.527573 
L 316.514556 -302.641619 
L 301.98042 -302.588648 
L 287.446256 -302.60796 
L 272.912092 -302.459485 
L 258.377929 -302.697824 
L 243.843793 -302.55881 
L 229.309629 -302.242839 
L 214.775465 -301.865269 
L 200.241301 -301.562886 
L 185.707165 -300.981819 
L 171.173001 -300.602283 
L 156.638837 -300.093701 
L 142.104674 -299.403702 
L 127.570537 -297.58388 
L 113.036374 -294.091423 
L 98.50221 -272.494674 
L 83.968074 -341.181349 
z
" style="stroke: #4c72b0; stroke-opacity: 0.2; stroke-width: 1.5"/>
    </defs>
    <g clip-path="url(#p546c4a403c)">
     <use xlink:href="#m87618160f3" x="0" y="1055.145469" style="fill: #4c72b0; fill-opacity: 0.2; stroke: #4c72b0; stroke-opacity: 0.2; stroke-width: 1.5"/>
    </g>
   </g>
   <g id="line2d_70">
    <path d="M 83.968074 714.572829 
L 98.50221 786.262597 
L 113.036374 761.971276 
L 127.570537 759.150974 
L 142.104674 757.31847 
L 156.638837 756.12447 
L 171.173001 755.527108 
L 185.707165 755.015422 
L 200.241301 754.581008 
L 214.775465 754.155819 
L 229.309629 753.831325 
L 243.843793 753.923509 
L 258.377929 753.82427 
L 272.912092 753.981001 
L 287.446256 754.013567 
L 301.98042 754.052229 
L 316.514556 754.05332 
L 331.04872 754.047586 
L 345.582884 754.062171 
L 360.117048 754.05861 
" clip-path="url(#p546c4a403c)" style="fill: none; stroke: #4c72b0; stroke-width: 2.25; stroke-linecap: round"/>
   </g>
   <g id="patch_21">
    <path d="M 70.160625 998.055938 
L 70.160625 700.435938 
" style="fill: none; stroke: #ffffff; stroke-width: 1.875; stroke-linejoin: miter; stroke-linecap: square"/>
   </g>
   <g id="patch_22">
    <path d="M 70.160625 998.055938 
L 373.924496 998.055938 
" style="fill: none; stroke: #ffffff; stroke-width: 1.875; stroke-linejoin: miter; stroke-linecap: square"/>
   </g>
   <g id="text_27">
    <!-- classes = 1000 | nums = 1000 -->
    <g style="fill: #262626" transform="translate(83.525529 694.435938) scale(0.18 -0.18)">
     <use xlink:href="#DejaVuSans-63"/>
     <use xlink:href="#DejaVuSans-6c" transform="translate(54.980469 0)"/>
     <use xlink:href="#DejaVuSans-61" transform="translate(82.763672 0)"/>
     <use xlink:href="#DejaVuSans-73" transform="translate(144.042969 0)"/>
     <use xlink:href="#DejaVuSans-73" transform="translate(196.142578 0)"/>
     <use xlink:href="#DejaVuSans-65" transform="translate(248.242188 0)"/>
     <use xlink:href="#DejaVuSans-73" transform="translate(309.765625 0)"/>
     <use xlink:href="#DejaVuSans-20" transform="translate(361.865234 0)"/>
     <use xlink:href="#DejaVuSans-3d" transform="translate(393.652344 0)"/>
     <use xlink:href="#DejaVuSans-20" transform="translate(477.441406 0)"/>
     <use xlink:href="#DejaVuSans-31" transform="translate(509.228516 0)"/>
     <use xlink:href="#DejaVuSans-30" transform="translate(572.851562 0)"/>
     <use xlink:href="#DejaVuSans-30" transform="translate(636.474609 0)"/>
     <use xlink:href="#DejaVuSans-30" transform="translate(700.097656 0)"/>
     <use xlink:href="#DejaVuSans-20" transform="translate(763.720703 0)"/>
     <use xlink:href="#DejaVuSans-7c" transform="translate(795.507812 0)"/>
     <use xlink:href="#DejaVuSans-20" transform="translate(829.199219 0)"/>
     <use xlink:href="#DejaVuSans-6e" transform="translate(860.986328 0)"/>
     <use xlink:href="#DejaVuSans-75" transform="translate(924.365234 0)"/>
     <use xlink:href="#DejaVuSans-6d" transform="translate(987.744141 0)"/>
     <use xlink:href="#DejaVuSans-73" transform="translate(1085.15625 0)"/>
     <use xlink:href="#DejaVuSans-20" transform="translate(1137.255859 0)"/>
     <use xlink:href="#DejaVuSans-3d" transform="translate(1169.042969 0)"/>
     <use xlink:href="#DejaVuSans-20" transform="translate(1252.832031 0)"/>
     <use xlink:href="#DejaVuSans-31" transform="translate(1284.619141 0)"/>
     <use xlink:href="#DejaVuSans-30" transform="translate(1348.242188 0)"/>
     <use xlink:href="#DejaVuSans-30" transform="translate(1411.865234 0)"/>
     <use xlink:href="#DejaVuSans-30" transform="translate(1475.488281 0)"/>
    </g>
   </g>
  </g>
  <g id="axes_8">
   <g id="patch_23">
    <path d="M 403.622856 998.055938 
L 707.386727 998.055938 
L 707.386727 700.435938 
L 403.622856 700.435938 
z
" style="fill: #eaeaf2"/>
   </g>
   <g id="matplotlib.axis_15">
    <g id="xtick_43">
     <g id="line2d_71">
      <path d="M 417.430277 998.055938 
L 417.430277 700.435938 
" clip-path="url(#p3cb147b0a2)" style="fill: none; stroke: #ffffff; stroke-width: 1.5; stroke-linecap: round"/>
     </g>
     <g id="text_28">
      <!-- $\mathdefault{0.0}$ -->
      <g style="fill: #262626" transform="translate(404.230277 1023.093359) scale(0.165 -0.165)">
       <use xlink:href="#DejaVuSans-30" transform="translate(0 0.78125)"/>
       <use xlink:href="#DejaVuSans-2e" transform="translate(63.623047 0.78125)"/>
       <use xlink:href="#DejaVuSans-30" transform="translate(95.410156 0.78125)"/>
      </g>
     </g>
    </g>
    <g id="xtick_44">
     <g id="line2d_72">
      <path d="M 472.660077 998.055938 
L 472.660077 700.435938 
" clip-path="url(#p3cb147b0a2)" style="fill: none; stroke: #ffffff; stroke-width: 1.5; stroke-linecap: round"/>
     </g>
     <g id="text_29">
      <!-- $\mathdefault{0.2}$ -->
      <g style="fill: #262626" transform="translate(459.955077 1023.093359) scale(0.165 -0.165)">
       <use xlink:href="#DejaVuSans-30" transform="translate(0 0.78125)"/>
       <use xlink:href="#DejaVuSans-2e" transform="translate(63.623047 0.78125)"/>
       <use xlink:href="#DejaVuSans-32" transform="translate(89.910156 0.78125)"/>
      </g>
     </g>
    </g>
    <g id="xtick_45">
     <g id="line2d_73">
      <path d="M 527.889878 998.055938 
L 527.889878 700.435938 
" clip-path="url(#p3cb147b0a2)" style="fill: none; stroke: #ffffff; stroke-width: 1.5; stroke-linecap: round"/>
     </g>
     <g id="text_30">
      <!-- $\mathdefault{0.4}$ -->
      <g style="fill: #262626" transform="translate(514.689878 1023.093359) scale(0.165 -0.165)">
       <use xlink:href="#DejaVuSans-30" transform="translate(0 0.78125)"/>
       <use xlink:href="#DejaVuSans-2e" transform="translate(63.623047 0.78125)"/>
       <use xlink:href="#DejaVuSans-34" transform="translate(95.410156 0.78125)"/>
      </g>
     </g>
    </g>
    <g id="xtick_46">
     <g id="line2d_74">
      <path d="M 583.119678 998.055938 
L 583.119678 700.435938 
" clip-path="url(#p3cb147b0a2)" style="fill: none; stroke: #ffffff; stroke-width: 1.5; stroke-linecap: round"/>
     </g>
     <g id="text_31">
      <!-- $\mathdefault{0.6}$ -->
      <g style="fill: #262626" transform="translate(569.919678 1023.093359) scale(0.165 -0.165)">
       <use xlink:href="#DejaVuSans-30" transform="translate(0 0.78125)"/>
       <use xlink:href="#DejaVuSans-2e" transform="translate(63.623047 0.78125)"/>
       <use xlink:href="#DejaVuSans-36" transform="translate(95.410156 0.78125)"/>
      </g>
     </g>
    </g>
    <g id="xtick_47">
     <g id="line2d_75">
      <path d="M 638.349478 998.055938 
L 638.349478 700.435938 
" clip-path="url(#p3cb147b0a2)" style="fill: none; stroke: #ffffff; stroke-width: 1.5; stroke-linecap: round"/>
     </g>
     <g id="text_32">
      <!-- $\mathdefault{0.8}$ -->
      <g style="fill: #262626" transform="translate(625.396978 1023.093359) scale(0.165 -0.165)">
       <use xlink:href="#DejaVuSans-30" transform="translate(0 0.78125)"/>
       <use xlink:href="#DejaVuSans-2e" transform="translate(63.623047 0.78125)"/>
       <use xlink:href="#DejaVuSans-38" transform="translate(92.785156 0.78125)"/>
      </g>
     </g>
    </g>
    <g id="xtick_48">
     <g id="line2d_76">
      <path d="M 693.579279 998.055938 
L 693.579279 700.435938 
" clip-path="url(#p3cb147b0a2)" style="fill: none; stroke: #ffffff; stroke-width: 1.5; stroke-linecap: round"/>
     </g>
     <g id="text_33">
      <!-- $\mathdefault{1.0}$ -->
      <g style="fill: #262626" transform="translate(680.379279 1023.093359) scale(0.165 -0.165)">
       <use xlink:href="#DejaVuSans-31" transform="translate(0 0.78125)"/>
       <use xlink:href="#DejaVuSans-2e" transform="translate(63.623047 0.78125)"/>
       <use xlink:href="#DejaVuSans-30" transform="translate(95.410156 0.78125)"/>
      </g>
     </g>
    </g>
    <g id="text_34">
     <!-- step -->
     <g style="fill: #262626" transform="translate(536.036667 1044.202031) scale(0.18 -0.18)">
      <use xlink:href="#DejaVuSans-73"/>
      <use xlink:href="#DejaVuSans-74" transform="translate(52.099609 0)"/>
      <use xlink:href="#DejaVuSans-65" transform="translate(91.308594 0)"/>
      <use xlink:href="#DejaVuSans-70" transform="translate(152.832031 0)"/>
     </g>
    </g>
    <g id="text_35">
     <!-- $\times\mathdefault{10^{7}}\mathdefault{}$ -->
     <g style="fill: #262626" transform="translate(664.486727 1042.062266) scale(0.165 -0.165)">
      <use xlink:href="#DejaVuSans-d7" transform="translate(0 0.684375)"/>
      <use xlink:href="#DejaVuSans-31" transform="translate(83.789062 0.684375)"/>
      <use xlink:href="#DejaVuSans-30" transform="translate(147.412109 0.684375)"/>
      <use xlink:href="#DejaVuSans-37" transform="translate(211.992188 38.965625) scale(0.7)"/>
     </g>
    </g>
   </g>
   <g id="matplotlib.axis_16">
    <g id="ytick_162">
     <g id="line2d_77">
      <path d="M 403.622856 984.563407 
L 707.386727 984.563407 
" clip-path="url(#p3cb147b0a2)" style="fill: none; stroke: #ffffff; stroke-width: 1.5; stroke-linecap: round"/>
     </g>
    </g>
    <g id="ytick_163">
     <g id="line2d_78">
      <path d="M 403.622856 871.141776 
L 707.386727 871.141776 
" clip-path="url(#p3cb147b0a2)" style="fill: none; stroke: #ffffff; stroke-width: 1.5; stroke-linecap: round"/>
     </g>
    </g>
    <g id="ytick_164">
     <g id="line2d_79">
      <path d="M 403.622856 757.720146 
L 707.386727 757.720146 
" clip-path="url(#p3cb147b0a2)" style="fill: none; stroke: #ffffff; stroke-width: 1.5; stroke-linecap: round"/>
     </g>
    </g>
    <g id="ytick_165"/>
    <g id="ytick_166"/>
    <g id="ytick_167"/>
    <g id="ytick_168"/>
    <g id="ytick_169"/>
    <g id="ytick_170"/>
    <g id="ytick_171"/>
    <g id="ytick_172"/>
    <g id="ytick_173"/>
    <g id="ytick_174"/>
    <g id="ytick_175"/>
    <g id="ytick_176"/>
    <g id="ytick_177"/>
    <g id="ytick_178"/>
    <g id="ytick_179"/>
    <g id="ytick_180"/>
    <g id="ytick_181"/>
    <g id="ytick_182"/>
    <g id="ytick_183"/>
    <g id="ytick_184"/>
   </g>
   <g id="FillBetweenPolyCollection_8">
    <defs>
     <path id="m2b45eea348" d="M 417.430305 -341.181349 
L 417.430305 -340.212062 
L 431.964441 -165.873028 
L 446.498605 -241.516845 
L 461.032768 -251.650918 
L 475.566905 -255.582947 
L 490.101068 -258.469122 
L 504.635232 -259.052107 
L 519.169396 -258.959493 
L 533.703532 -260.765592 
L 548.237696 -261.083168 
L 562.77186 -260.839343 
L 577.306024 -261.378745 
L 591.84016 -262.709416 
L 606.374324 -263.159983 
L 620.908487 -265.126646 
L 635.442651 -263.775394 
L 649.976787 -263.870469 
L 664.510951 -263.892157 
L 679.045115 -263.891908 
L 693.579279 -263.236162 
L 693.579279 -275.504586 
L 693.579279 -275.504586 
L 679.045115 -274.988625 
L 664.510951 -274.91939 
L 649.976787 -275.044669 
L 635.442651 -275.126702 
L 620.908487 -275.175601 
L 606.374324 -273.417592 
L 591.84016 -272.532642 
L 577.306024 -271.595721 
L 562.77186 -270.57611 
L 548.237696 -269.509942 
L 533.703532 -267.790073 
L 519.169396 -266.142985 
L 504.635232 -263.070276 
L 490.101068 -261.313406 
L 475.566905 -259.783967 
L 461.032768 -254.646071 
L 446.498605 -249.620318 
L 431.964441 -181.476514 
L 417.430305 -341.181349 
z
" style="stroke: #4c72b0; stroke-opacity: 0.2; stroke-width: 1.5"/>
    </defs>
    <g clip-path="url(#p3cb147b0a2)">
     <use xlink:href="#m2b45eea348" x="0" y="1055.145469" style="fill: #4c72b0; fill-opacity: 0.2; stroke: #4c72b0; stroke-opacity: 0.2; stroke-width: 1.5"/>
    </g>
   </g>
   <g id="line2d_80">
    <path d="M 417.430305 714.572829 
L 431.964441 880.855428 
L 446.498605 809.410438 
L 461.032768 801.787565 
L 475.566905 797.417239 
L 490.101068 795.278311 
L 504.635232 794.027728 
L 519.169396 791.918097 
L 533.703532 790.322657 
L 548.237696 789.494692 
L 562.77186 788.462402 
L 577.306024 787.617614 
L 591.84016 786.98137 
L 606.374324 786.024229 
L 620.908487 784.978194 
L 635.442651 784.794055 
L 649.976787 784.771011 
L 664.510951 784.798093 
L 679.045115 784.782715 
L 693.579279 784.790079 
" clip-path="url(#p3cb147b0a2)" style="fill: none; stroke: #4c72b0; stroke-width: 2.25; stroke-linecap: round"/>
   </g>
   <g id="patch_24">
    <path d="M 403.622856 998.055938 
L 403.622856 700.435938 
" style="fill: none; stroke: #ffffff; stroke-width: 1.875; stroke-linejoin: miter; stroke-linecap: square"/>
   </g>
   <g id="patch_25">
    <path d="M 403.622856 998.055938 
L 707.386727 998.055938 
" style="fill: none; stroke: #ffffff; stroke-width: 1.875; stroke-linejoin: miter; stroke-linecap: square"/>
   </g>
   <g id="text_36">
    <!-- classes = 1000 | nums = 10000 -->
    <g style="fill: #262626" transform="translate(411.26151 694.435938) scale(0.18 -0.18)">
     <use xlink:href="#DejaVuSans-63"/>
     <use xlink:href="#DejaVuSans-6c" transform="translate(54.980469 0)"/>
     <use xlink:href="#DejaVuSans-61" transform="translate(82.763672 0)"/>
     <use xlink:href="#DejaVuSans-73" transform="translate(144.042969 0)"/>
     <use xlink:href="#DejaVuSans-73" transform="translate(196.142578 0)"/>
     <use xlink:href="#DejaVuSans-65" transform="translate(248.242188 0)"/>
     <use xlink:href="#DejaVuSans-73" transform="translate(309.765625 0)"/>
     <use xlink:href="#DejaVuSans-20" transform="translate(361.865234 0)"/>
     <use xlink:href="#DejaVuSans-3d" transform="translate(393.652344 0)"/>
     <use xlink:href="#DejaVuSans-20" transform="translate(477.441406 0)"/>
     <use xlink:href="#DejaVuSans-31" transform="translate(509.228516 0)"/>
     <use xlink:href="#DejaVuSans-30" transform="translate(572.851562 0)"/>
     <use xlink:href="#DejaVuSans-30" transform="translate(636.474609 0)"/>
     <use xlink:href="#DejaVuSans-30" transform="translate(700.097656 0)"/>
     <use xlink:href="#DejaVuSans-20" transform="translate(763.720703 0)"/>
     <use xlink:href="#DejaVuSans-7c" transform="translate(795.507812 0)"/>
     <use xlink:href="#DejaVuSans-20" transform="translate(829.199219 0)"/>
     <use xlink:href="#DejaVuSans-6e" transform="translate(860.986328 0)"/>
     <use xlink:href="#DejaVuSans-75" transform="translate(924.365234 0)"/>
     <use xlink:href="#DejaVuSans-6d" transform="translate(987.744141 0)"/>
     <use xlink:href="#DejaVuSans-73" transform="translate(1085.15625 0)"/>
     <use xlink:href="#DejaVuSans-20" transform="translate(1137.255859 0)"/>
     <use xlink:href="#DejaVuSans-3d" transform="translate(1169.042969 0)"/>
     <use xlink:href="#DejaVuSans-20" transform="translate(1252.832031 0)"/>
     <use xlink:href="#DejaVuSans-31" transform="translate(1284.619141 0)"/>
     <use xlink:href="#DejaVuSans-30" transform="translate(1348.242188 0)"/>
     <use xlink:href="#DejaVuSans-30" transform="translate(1411.865234 0)"/>
     <use xlink:href="#DejaVuSans-30" transform="translate(1475.488281 0)"/>
     <use xlink:href="#DejaVuSans-30" transform="translate(1539.111328 0)"/>
    </g>
   </g>
  </g>
  <g id="axes_9">
   <g id="patch_26">
    <path d="M 737.085087 998.055938 
L 1040.848958 998.055938 
L 1040.848958 700.435938 
L 737.085087 700.435938 
z
" style="fill: #eaeaf2"/>
   </g>
   <g id="matplotlib.axis_17">
    <g id="xtick_49">
     <g id="line2d_81">
      <path d="M 750.892508 998.055938 
L 750.892508 700.435938 
" clip-path="url(#p19c0ce2eed)" style="fill: none; stroke: #ffffff; stroke-width: 1.5; stroke-linecap: round"/>
     </g>
     <g id="text_37">
      <!-- $\mathdefault{0.0}$ -->
      <g style="fill: #262626" transform="translate(737.692508 1023.093359) scale(0.165 -0.165)">
       <use xlink:href="#DejaVuSans-30" transform="translate(0 0.78125)"/>
       <use xlink:href="#DejaVuSans-2e" transform="translate(63.623047 0.78125)"/>
       <use xlink:href="#DejaVuSans-30" transform="translate(95.410156 0.78125)"/>
      </g>
     </g>
    </g>
    <g id="xtick_50">
     <g id="line2d_82">
      <path d="M 806.122308 998.055938 
L 806.122308 700.435938 
" clip-path="url(#p19c0ce2eed)" style="fill: none; stroke: #ffffff; stroke-width: 1.5; stroke-linecap: round"/>
     </g>
     <g id="text_38">
      <!-- $\mathdefault{0.2}$ -->
      <g style="fill: #262626" transform="translate(793.417308 1023.093359) scale(0.165 -0.165)">
       <use xlink:href="#DejaVuSans-30" transform="translate(0 0.78125)"/>
       <use xlink:href="#DejaVuSans-2e" transform="translate(63.623047 0.78125)"/>
       <use xlink:href="#DejaVuSans-32" transform="translate(89.910156 0.78125)"/>
      </g>
     </g>
    </g>
    <g id="xtick_51">
     <g id="line2d_83">
      <path d="M 861.352109 998.055938 
L 861.352109 700.435938 
" clip-path="url(#p19c0ce2eed)" style="fill: none; stroke: #ffffff; stroke-width: 1.5; stroke-linecap: round"/>
     </g>
     <g id="text_39">
      <!-- $\mathdefault{0.4}$ -->
      <g style="fill: #262626" transform="translate(848.152109 1023.093359) scale(0.165 -0.165)">
       <use xlink:href="#DejaVuSans-30" transform="translate(0 0.78125)"/>
       <use xlink:href="#DejaVuSans-2e" transform="translate(63.623047 0.78125)"/>
       <use xlink:href="#DejaVuSans-34" transform="translate(95.410156 0.78125)"/>
      </g>
     </g>
    </g>
    <g id="xtick_52">
     <g id="line2d_84">
      <path d="M 916.581909 998.055938 
L 916.581909 700.435938 
" clip-path="url(#p19c0ce2eed)" style="fill: none; stroke: #ffffff; stroke-width: 1.5; stroke-linecap: round"/>
     </g>
     <g id="text_40">
      <!-- $\mathdefault{0.6}$ -->
      <g style="fill: #262626" transform="translate(903.381909 1023.093359) scale(0.165 -0.165)">
       <use xlink:href="#DejaVuSans-30" transform="translate(0 0.78125)"/>
       <use xlink:href="#DejaVuSans-2e" transform="translate(63.623047 0.78125)"/>
       <use xlink:href="#DejaVuSans-36" transform="translate(95.410156 0.78125)"/>
      </g>
     </g>
    </g>
    <g id="xtick_53">
     <g id="line2d_85">
      <path d="M 971.811709 998.055938 
L 971.811709 700.435938 
" clip-path="url(#p19c0ce2eed)" style="fill: none; stroke: #ffffff; stroke-width: 1.5; stroke-linecap: round"/>
     </g>
     <g id="text_41">
      <!-- $\mathdefault{0.8}$ -->
      <g style="fill: #262626" transform="translate(958.859209 1023.093359) scale(0.165 -0.165)">
       <use xlink:href="#DejaVuSans-30" transform="translate(0 0.78125)"/>
       <use xlink:href="#DejaVuSans-2e" transform="translate(63.623047 0.78125)"/>
       <use xlink:href="#DejaVuSans-38" transform="translate(92.785156 0.78125)"/>
      </g>
     </g>
    </g>
    <g id="xtick_54">
     <g id="line2d_86">
      <path d="M 1027.04151 998.055938 
L 1027.04151 700.435938 
" clip-path="url(#p19c0ce2eed)" style="fill: none; stroke: #ffffff; stroke-width: 1.5; stroke-linecap: round"/>
     </g>
     <g id="text_42">
      <!-- $\mathdefault{1.0}$ -->
      <g style="fill: #262626" transform="translate(1013.84151 1023.093359) scale(0.165 -0.165)">
       <use xlink:href="#DejaVuSans-31" transform="translate(0 0.78125)"/>
       <use xlink:href="#DejaVuSans-2e" transform="translate(63.623047 0.78125)"/>
       <use xlink:href="#DejaVuSans-30" transform="translate(95.410156 0.78125)"/>
      </g>
     </g>
    </g>
    <g id="text_43">
     <!-- step -->
     <g style="fill: #262626" transform="translate(869.498898 1044.202031) scale(0.18 -0.18)">
      <use xlink:href="#DejaVuSans-73"/>
      <use xlink:href="#DejaVuSans-74" transform="translate(52.099609 0)"/>
      <use xlink:href="#DejaVuSans-65" transform="translate(91.308594 0)"/>
      <use xlink:href="#DejaVuSans-70" transform="translate(152.832031 0)"/>
     </g>
    </g>
    <g id="text_44">
     <!-- $\times\mathdefault{10^{7}}\mathdefault{}$ -->
     <g style="fill: #262626" transform="translate(997.948958 1042.062266) scale(0.165 -0.165)">
      <use xlink:href="#DejaVuSans-d7" transform="translate(0 0.684375)"/>
      <use xlink:href="#DejaVuSans-31" transform="translate(83.789062 0.684375)"/>
      <use xlink:href="#DejaVuSans-30" transform="translate(147.412109 0.684375)"/>
      <use xlink:href="#DejaVuSans-37" transform="translate(211.992188 38.965625) scale(0.7)"/>
     </g>
    </g>
   </g>
   <g id="matplotlib.axis_18">
    <g id="ytick_185">
     <g id="line2d_87">
      <path d="M 737.085087 984.563407 
L 1040.848958 984.563407 
" clip-path="url(#p19c0ce2eed)" style="fill: none; stroke: #ffffff; stroke-width: 1.5; stroke-linecap: round"/>
     </g>
    </g>
    <g id="ytick_186">
     <g id="line2d_88">
      <path d="M 737.085087 871.141776 
L 1040.848958 871.141776 
" clip-path="url(#p19c0ce2eed)" style="fill: none; stroke: #ffffff; stroke-width: 1.5; stroke-linecap: round"/>
     </g>
    </g>
    <g id="ytick_187">
     <g id="line2d_89">
      <path d="M 737.085087 757.720146 
L 1040.848958 757.720146 
" clip-path="url(#p19c0ce2eed)" style="fill: none; stroke: #ffffff; stroke-width: 1.5; stroke-linecap: round"/>
     </g>
    </g>
    <g id="ytick_188"/>
    <g id="ytick_189"/>
    <g id="ytick_190"/>
    <g id="ytick_191"/>
    <g id="ytick_192"/>
    <g id="ytick_193"/>
    <g id="ytick_194"/>
    <g id="ytick_195"/>
    <g id="ytick_196"/>
    <g id="ytick_197"/>
    <g id="ytick_198"/>
    <g id="ytick_199"/>
    <g id="ytick_200"/>
    <g id="ytick_201"/>
    <g id="ytick_202"/>
    <g id="ytick_203"/>
    <g id="ytick_204"/>
    <g id="ytick_205"/>
    <g id="ytick_206"/>
    <g id="ytick_207"/>
   </g>
   <g id="FillBetweenPolyCollection_9">
    <defs>
     <path id="m1b49f80c1f" d="M 750.892536 -341.181349 
L 750.892536 -340.211411 
L 765.426672 -176.153529 
L 779.960836 -130.157101 
L 794.494999 -93.974933 
L 809.029136 -80.703896 
L 823.563299 -77.224526 
L 838.097463 -78.980441 
L 852.631627 -77.140072 
L 867.165763 -77.323858 
L 881.699927 -74.363518 
L 896.234091 -73.744048 
L 910.768255 -72.883015 
L 925.302391 -73.454469 
L 939.836555 -72.772025 
L 954.370718 -73.159202 
L 968.904882 -73.208342 
L 983.439018 -72.227718 
L 997.973182 -72.618185 
L 1012.507346 -72.424799 
L 1027.04151 -72.267844 
L 1027.04151 -74.159251 
L 1027.04151 -74.159251 
L 1012.507346 -74.184866 
L 997.973182 -74.160523 
L 983.439018 -74.025171 
L 968.904882 -74.082905 
L 954.370718 -75.305404 
L 939.836555 -76.299957 
L 925.302391 -75.261683 
L 910.768255 -75.359965 
L 896.234091 -78.28876 
L 881.699927 -77.390906 
L 867.165763 -81.805686 
L 852.631627 -80.001095 
L 838.097463 -81.517869 
L 823.563299 -88.098718 
L 809.029136 -97.117552 
L 794.494999 -116.528308 
L 779.960836 -145.214522 
L 765.426672 -192.846977 
L 750.892536 -341.181349 
z
" style="stroke: #4c72b0; stroke-opacity: 0.2; stroke-width: 1.5"/>
    </defs>
    <g clip-path="url(#p19c0ce2eed)">
     <use xlink:href="#m1b49f80c1f" x="0" y="1055.145469" style="fill: #4c72b0; fill-opacity: 0.2; stroke: #4c72b0; stroke-opacity: 0.2; stroke-width: 1.5"/>
    </g>
   </g>
   <g id="line2d_90">
    <path d="M 750.892536 714.572829 
L 765.426672 871.12815 
L 779.960836 918.506615 
L 794.494999 948.614186 
L 809.029136 965.766685 
L 823.563299 972.086733 
L 838.097463 974.879977 
L 852.631627 976.65034 
L 867.165763 975.974445 
L 881.699927 978.957809 
L 896.234091 979.241175 
L 910.768255 981.008411 
L 925.302391 980.779105 
L 939.836555 980.852889 
L 954.370718 980.986366 
L 968.904882 981.548425 
L 983.439018 982.010826 
L 997.973182 981.67518 
L 1012.507346 981.651784 
L 1027.04151 981.696836 
" clip-path="url(#p19c0ce2eed)" style="fill: none; stroke: #4c72b0; stroke-width: 2.25; stroke-linecap: round"/>
   </g>
   <g id="patch_27">
    <path d="M 737.085087 998.055938 
L 737.085087 700.435938 
" style="fill: none; stroke: #ffffff; stroke-width: 1.875; stroke-linejoin: miter; stroke-linecap: square"/>
   </g>
   <g id="patch_28">
    <path d="M 737.085087 998.055938 
L 1040.848958 998.055938 
" style="fill: none; stroke: #ffffff; stroke-width: 1.875; stroke-linejoin: miter; stroke-linecap: square"/>
   </g>
   <g id="text_45">
    <!-- classes = 1000 | nums = 100000 -->
    <g style="fill: #262626" transform="translate(738.997491 694.435938) scale(0.18 -0.18)">
     <use xlink:href="#DejaVuSans-63"/>
     <use xlink:href="#DejaVuSans-6c" transform="translate(54.980469 0)"/>
     <use xlink:href="#DejaVuSans-61" transform="translate(82.763672 0)"/>
     <use xlink:href="#DejaVuSans-73" transform="translate(144.042969 0)"/>
     <use xlink:href="#DejaVuSans-73" transform="translate(196.142578 0)"/>
     <use xlink:href="#DejaVuSans-65" transform="translate(248.242188 0)"/>
     <use xlink:href="#DejaVuSans-73" transform="translate(309.765625 0)"/>
     <use xlink:href="#DejaVuSans-20" transform="translate(361.865234 0)"/>
     <use xlink:href="#DejaVuSans-3d" transform="translate(393.652344 0)"/>
     <use xlink:href="#DejaVuSans-20" transform="translate(477.441406 0)"/>
     <use xlink:href="#DejaVuSans-31" transform="translate(509.228516 0)"/>
     <use xlink:href="#DejaVuSans-30" transform="translate(572.851562 0)"/>
     <use xlink:href="#DejaVuSans-30" transform="translate(636.474609 0)"/>
     <use xlink:href="#DejaVuSans-30" transform="translate(700.097656 0)"/>
     <use xlink:href="#DejaVuSans-20" transform="translate(763.720703 0)"/>
     <use xlink:href="#DejaVuSans-7c" transform="translate(795.507812 0)"/>
     <use xlink:href="#DejaVuSans-20" transform="translate(829.199219 0)"/>
     <use xlink:href="#DejaVuSans-6e" transform="translate(860.986328 0)"/>
     <use xlink:href="#DejaVuSans-75" transform="translate(924.365234 0)"/>
     <use xlink:href="#DejaVuSans-6d" transform="translate(987.744141 0)"/>
     <use xlink:href="#DejaVuSans-73" transform="translate(1085.15625 0)"/>
     <use xlink:href="#DejaVuSans-20" transform="translate(1137.255859 0)"/>
     <use xlink:href="#DejaVuSans-3d" transform="translate(1169.042969 0)"/>
     <use xlink:href="#DejaVuSans-20" transform="translate(1252.832031 0)"/>
     <use xlink:href="#DejaVuSans-31" transform="translate(1284.619141 0)"/>
     <use xlink:href="#DejaVuSans-30" transform="translate(1348.242188 0)"/>
     <use xlink:href="#DejaVuSans-30" transform="translate(1411.865234 0)"/>
     <use xlink:href="#DejaVuSans-30" transform="translate(1475.488281 0)"/>
     <use xlink:href="#DejaVuSans-30" transform="translate(1539.111328 0)"/>
     <use xlink:href="#DejaVuSans-30" transform="translate(1602.734375 0)"/>
    </g>
   </g>
  </g>
 </g>
 <defs>
  <clipPath id="p187ae1e475">
   <rect x="70.160625" y="26.955938" width="303.763871" height="297.62"/>
  </clipPath>
  <clipPath id="pe31953d83c">
   <rect x="403.622856" y="26.955938" width="303.763871" height="297.62"/>
  </clipPath>
  <clipPath id="p9d2acd5fcb">
   <rect x="737.085087" y="26.955938" width="303.763871" height="297.62"/>
  </clipPath>
  <clipPath id="p4542eaa538">
   <rect x="70.160625" y="363.695938" width="303.763871" height="297.62"/>
  </clipPath>
  <clipPath id="p8c235598fc">
   <rect x="403.622856" y="363.695938" width="303.763871" height="297.62"/>
  </clipPath>
  <clipPath id="p29ee47870f">
   <rect x="737.085087" y="363.695938" width="303.763871" height="297.62"/>
  </clipPath>
  <clipPath id="p546c4a403c">
   <rect x="70.160625" y="700.435938" width="303.763871" height="297.62"/>
  </clipPath>
  <clipPath id="p3cb147b0a2">
   <rect x="403.622856" y="700.435938" width="303.763871" height="297.62"/>
  </clipPath>
  <clipPath id="p19c0ce2eed">
   <rect x="737.085087" y="700.435938" width="303.763871" height="297.62"/>
  </clipPath>
 </defs>
</svg>
